<mxfile host="app.diagrams.net" modified="2021-10-21T10:14:42.570Z" agent="5.0 (Macintosh; Intel Mac OS X 10_15_7) AppleWebKit/605.1.15 (KHTML, like Gecko) Version/14.1.2 Safari/605.1.15" etag="tKAxP-GTbgp1mHh6VI8v" version="15.5.8" type="github">
  <diagram id="vaCZzUUUtzkYhYZCGIXg" name="Page-1">
    <mxGraphModel dx="1618" dy="1075" grid="0" gridSize="10" guides="1" tooltips="1" connect="1" arrows="1" fold="1" page="1" pageScale="1" pageWidth="1654" pageHeight="1169" math="0" shadow="0">
      <root>
        <mxCell id="0" />
        <mxCell id="1" parent="0" />
        <mxCell id="KJ-qH1atPCSQWbOXbqT6-14" value="" style="shape=table;startSize=0;container=1;collapsible=0;childLayout=tableLayout;" parent="1" vertex="1">
          <mxGeometry x="181" y="174" width="60" height="40" as="geometry" />
        </mxCell>
        <mxCell id="KJ-qH1atPCSQWbOXbqT6-15" value="" style="shape=partialRectangle;collapsible=0;dropTarget=0;pointerEvents=0;fillColor=none;top=0;left=0;bottom=0;right=0;points=[[0,0.5],[1,0.5]];portConstraint=eastwest;" parent="KJ-qH1atPCSQWbOXbqT6-14" vertex="1">
          <mxGeometry width="60" height="40" as="geometry" />
        </mxCell>
        <mxCell id="KJ-qH1atPCSQWbOXbqT6-16" value="IF1" style="shape=partialRectangle;html=1;whiteSpace=wrap;connectable=0;overflow=hidden;fillColor=none;top=0;left=0;bottom=0;right=0;pointerEvents=1;" parent="KJ-qH1atPCSQWbOXbqT6-15" vertex="1">
          <mxGeometry width="60" height="40" as="geometry">
            <mxRectangle width="60" height="40" as="alternateBounds" />
          </mxGeometry>
        </mxCell>
        <mxCell id="KJ-qH1atPCSQWbOXbqT6-17" value="" style="shape=partialRectangle;collapsible=0;dropTarget=0;pointerEvents=0;fillColor=none;top=0;left=0;bottom=0;right=0;points=[[0,0.5],[1,0.5]];portConstraint=eastwest;" parent="1" vertex="1">
          <mxGeometry x="241" y="174" width="60" height="40" as="geometry" />
        </mxCell>
        <mxCell id="KJ-qH1atPCSQWbOXbqT6-18" value="" style="shape=partialRectangle;html=1;whiteSpace=wrap;connectable=0;overflow=hidden;fillColor=none;top=0;left=0;bottom=0;right=0;pointerEvents=1;" parent="KJ-qH1atPCSQWbOXbqT6-17" vertex="1">
          <mxGeometry width="60" height="40" as="geometry">
            <mxRectangle width="60" height="40" as="alternateBounds" />
          </mxGeometry>
        </mxCell>
        <mxCell id="KJ-qH1atPCSQWbOXbqT6-19" value="" style="shape=table;startSize=0;container=1;collapsible=0;childLayout=tableLayout;" parent="1" vertex="1">
          <mxGeometry x="241" y="174" width="60" height="40" as="geometry" />
        </mxCell>
        <mxCell id="KJ-qH1atPCSQWbOXbqT6-20" value="" style="shape=partialRectangle;collapsible=0;dropTarget=0;pointerEvents=0;fillColor=none;top=0;left=0;bottom=0;right=0;points=[[0,0.5],[1,0.5]];portConstraint=eastwest;" parent="KJ-qH1atPCSQWbOXbqT6-19" vertex="1">
          <mxGeometry width="60" height="40" as="geometry" />
        </mxCell>
        <mxCell id="KJ-qH1atPCSQWbOXbqT6-21" value="IF2" style="shape=partialRectangle;html=1;whiteSpace=wrap;connectable=0;overflow=hidden;fillColor=none;top=0;left=0;bottom=0;right=0;pointerEvents=1;" parent="KJ-qH1atPCSQWbOXbqT6-20" vertex="1">
          <mxGeometry width="60" height="40" as="geometry">
            <mxRectangle width="60" height="40" as="alternateBounds" />
          </mxGeometry>
        </mxCell>
        <mxCell id="KJ-qH1atPCSQWbOXbqT6-22" value="" style="shape=table;startSize=0;container=1;collapsible=0;childLayout=tableLayout;" parent="1" vertex="1">
          <mxGeometry x="301" y="174" width="60" height="40" as="geometry" />
        </mxCell>
        <mxCell id="KJ-qH1atPCSQWbOXbqT6-23" value="" style="shape=partialRectangle;collapsible=0;dropTarget=0;pointerEvents=0;fillColor=none;top=0;left=0;bottom=0;right=0;points=[[0,0.5],[1,0.5]];portConstraint=eastwest;" parent="KJ-qH1atPCSQWbOXbqT6-22" vertex="1">
          <mxGeometry width="60" height="40" as="geometry" />
        </mxCell>
        <mxCell id="KJ-qH1atPCSQWbOXbqT6-24" value="ID" style="shape=partialRectangle;html=1;whiteSpace=wrap;connectable=0;overflow=hidden;fillColor=none;top=0;left=0;bottom=0;right=0;pointerEvents=1;" parent="KJ-qH1atPCSQWbOXbqT6-23" vertex="1">
          <mxGeometry width="60" height="40" as="geometry">
            <mxRectangle width="60" height="40" as="alternateBounds" />
          </mxGeometry>
        </mxCell>
        <mxCell id="KJ-qH1atPCSQWbOXbqT6-25" value="" style="shape=partialRectangle;collapsible=0;dropTarget=0;pointerEvents=0;fillColor=none;top=0;left=0;bottom=0;right=0;points=[[0,0.5],[1,0.5]];portConstraint=eastwest;" parent="1" vertex="1">
          <mxGeometry x="361" y="174" width="60" height="40" as="geometry" />
        </mxCell>
        <mxCell id="KJ-qH1atPCSQWbOXbqT6-26" value="" style="shape=partialRectangle;html=1;whiteSpace=wrap;connectable=0;overflow=hidden;fillColor=none;top=0;left=0;bottom=0;right=0;pointerEvents=1;" parent="KJ-qH1atPCSQWbOXbqT6-25" vertex="1">
          <mxGeometry width="60" height="40" as="geometry">
            <mxRectangle width="60" height="40" as="alternateBounds" />
          </mxGeometry>
        </mxCell>
        <mxCell id="KJ-qH1atPCSQWbOXbqT6-27" value="" style="shape=table;startSize=0;container=1;collapsible=0;childLayout=tableLayout;" parent="1" vertex="1">
          <mxGeometry x="361" y="174" width="60" height="40" as="geometry" />
        </mxCell>
        <mxCell id="KJ-qH1atPCSQWbOXbqT6-28" value="" style="shape=partialRectangle;collapsible=0;dropTarget=0;pointerEvents=0;fillColor=none;top=0;left=0;bottom=0;right=0;points=[[0,0.5],[1,0.5]];portConstraint=eastwest;" parent="KJ-qH1atPCSQWbOXbqT6-27" vertex="1">
          <mxGeometry width="60" height="40" as="geometry" />
        </mxCell>
        <mxCell id="KJ-qH1atPCSQWbOXbqT6-29" value="EX" style="shape=partialRectangle;html=1;whiteSpace=wrap;connectable=0;overflow=hidden;fillColor=none;top=0;left=0;bottom=0;right=0;pointerEvents=1;" parent="KJ-qH1atPCSQWbOXbqT6-28" vertex="1">
          <mxGeometry width="60" height="40" as="geometry">
            <mxRectangle width="60" height="40" as="alternateBounds" />
          </mxGeometry>
        </mxCell>
        <mxCell id="KJ-qH1atPCSQWbOXbqT6-30" value="" style="shape=table;startSize=0;container=1;collapsible=0;childLayout=tableLayout;" parent="1" vertex="1">
          <mxGeometry x="421" y="174" width="60" height="40" as="geometry" />
        </mxCell>
        <mxCell id="KJ-qH1atPCSQWbOXbqT6-31" value="" style="shape=partialRectangle;collapsible=0;dropTarget=0;pointerEvents=0;fillColor=none;top=0;left=0;bottom=0;right=0;points=[[0,0.5],[1,0.5]];portConstraint=eastwest;" parent="KJ-qH1atPCSQWbOXbqT6-30" vertex="1">
          <mxGeometry width="60" height="40" as="geometry" />
        </mxCell>
        <mxCell id="KJ-qH1atPCSQWbOXbqT6-32" value="MEM1" style="shape=partialRectangle;html=1;whiteSpace=wrap;connectable=0;overflow=hidden;fillColor=none;top=0;left=0;bottom=0;right=0;pointerEvents=1;" parent="KJ-qH1atPCSQWbOXbqT6-31" vertex="1">
          <mxGeometry width="60" height="40" as="geometry">
            <mxRectangle width="60" height="40" as="alternateBounds" />
          </mxGeometry>
        </mxCell>
        <mxCell id="KJ-qH1atPCSQWbOXbqT6-33" value="" style="shape=partialRectangle;collapsible=0;dropTarget=0;pointerEvents=0;fillColor=none;top=0;left=0;bottom=0;right=0;points=[[0,0.5],[1,0.5]];portConstraint=eastwest;" parent="1" vertex="1">
          <mxGeometry x="481" y="174" width="60" height="40" as="geometry" />
        </mxCell>
        <mxCell id="KJ-qH1atPCSQWbOXbqT6-34" value="" style="shape=partialRectangle;html=1;whiteSpace=wrap;connectable=0;overflow=hidden;fillColor=none;top=0;left=0;bottom=0;right=0;pointerEvents=1;" parent="KJ-qH1atPCSQWbOXbqT6-33" vertex="1">
          <mxGeometry width="60" height="40" as="geometry">
            <mxRectangle width="60" height="40" as="alternateBounds" />
          </mxGeometry>
        </mxCell>
        <mxCell id="KJ-qH1atPCSQWbOXbqT6-35" value="" style="shape=table;startSize=0;container=1;collapsible=0;childLayout=tableLayout;" parent="1" vertex="1">
          <mxGeometry x="481" y="174" width="60" height="40" as="geometry" />
        </mxCell>
        <mxCell id="KJ-qH1atPCSQWbOXbqT6-36" value="" style="shape=partialRectangle;collapsible=0;dropTarget=0;pointerEvents=0;fillColor=none;top=0;left=0;bottom=0;right=0;points=[[0,0.5],[1,0.5]];portConstraint=eastwest;" parent="KJ-qH1atPCSQWbOXbqT6-35" vertex="1">
          <mxGeometry width="60" height="40" as="geometry" />
        </mxCell>
        <mxCell id="KJ-qH1atPCSQWbOXbqT6-37" value="MEM2" style="shape=partialRectangle;html=1;whiteSpace=wrap;connectable=0;overflow=hidden;fillColor=none;top=0;left=0;bottom=0;right=0;pointerEvents=1;" parent="KJ-qH1atPCSQWbOXbqT6-36" vertex="1">
          <mxGeometry width="60" height="40" as="geometry">
            <mxRectangle width="60" height="40" as="alternateBounds" />
          </mxGeometry>
        </mxCell>
        <mxCell id="KJ-qH1atPCSQWbOXbqT6-38" value="" style="shape=table;startSize=0;container=1;collapsible=0;childLayout=tableLayout;" parent="1" vertex="1">
          <mxGeometry x="541" y="174" width="60" height="40" as="geometry" />
        </mxCell>
        <mxCell id="KJ-qH1atPCSQWbOXbqT6-39" value="" style="shape=partialRectangle;collapsible=0;dropTarget=0;pointerEvents=0;fillColor=none;top=0;left=0;bottom=0;right=0;points=[[0,0.5],[1,0.5]];portConstraint=eastwest;" parent="KJ-qH1atPCSQWbOXbqT6-38" vertex="1">
          <mxGeometry width="60" height="40" as="geometry" />
        </mxCell>
        <mxCell id="KJ-qH1atPCSQWbOXbqT6-40" value="WB" style="shape=partialRectangle;html=1;whiteSpace=wrap;connectable=0;overflow=hidden;fillColor=none;top=0;left=0;bottom=0;right=0;pointerEvents=1;" parent="KJ-qH1atPCSQWbOXbqT6-39" vertex="1">
          <mxGeometry width="60" height="40" as="geometry">
            <mxRectangle width="60" height="40" as="alternateBounds" />
          </mxGeometry>
        </mxCell>
        <mxCell id="KJ-qH1atPCSQWbOXbqT6-41" value="" style="shape=partialRectangle;collapsible=0;dropTarget=0;pointerEvents=0;fillColor=none;top=0;left=0;bottom=0;right=0;points=[[0,0.5],[1,0.5]];portConstraint=eastwest;" parent="1" vertex="1">
          <mxGeometry x="601" y="174" width="60" height="40" as="geometry" />
        </mxCell>
        <mxCell id="KJ-qH1atPCSQWbOXbqT6-42" value="" style="shape=partialRectangle;html=1;whiteSpace=wrap;connectable=0;overflow=hidden;fillColor=none;top=0;left=0;bottom=0;right=0;pointerEvents=1;" parent="KJ-qH1atPCSQWbOXbqT6-41" vertex="1">
          <mxGeometry width="60" height="40" as="geometry">
            <mxRectangle width="60" height="40" as="alternateBounds" />
          </mxGeometry>
        </mxCell>
        <mxCell id="KJ-qH1atPCSQWbOXbqT6-46" value="" style="shape=table;startSize=0;container=1;collapsible=0;childLayout=tableLayout;" parent="1" vertex="1">
          <mxGeometry x="241" y="244" width="60" height="40" as="geometry" />
        </mxCell>
        <mxCell id="KJ-qH1atPCSQWbOXbqT6-47" value="" style="shape=partialRectangle;collapsible=0;dropTarget=0;pointerEvents=0;fillColor=none;top=0;left=0;bottom=0;right=0;points=[[0,0.5],[1,0.5]];portConstraint=eastwest;" parent="KJ-qH1atPCSQWbOXbqT6-46" vertex="1">
          <mxGeometry width="60" height="40" as="geometry" />
        </mxCell>
        <mxCell id="KJ-qH1atPCSQWbOXbqT6-48" value="IF1" style="shape=partialRectangle;html=1;whiteSpace=wrap;connectable=0;overflow=hidden;fillColor=none;top=0;left=0;bottom=0;right=0;pointerEvents=1;" parent="KJ-qH1atPCSQWbOXbqT6-47" vertex="1">
          <mxGeometry width="60" height="40" as="geometry">
            <mxRectangle width="60" height="40" as="alternateBounds" />
          </mxGeometry>
        </mxCell>
        <mxCell id="KJ-qH1atPCSQWbOXbqT6-49" value="" style="shape=partialRectangle;collapsible=0;dropTarget=0;pointerEvents=0;fillColor=none;top=0;left=0;bottom=0;right=0;points=[[0,0.5],[1,0.5]];portConstraint=eastwest;" parent="1" vertex="1">
          <mxGeometry x="301" y="244" width="60" height="40" as="geometry" />
        </mxCell>
        <mxCell id="KJ-qH1atPCSQWbOXbqT6-50" value="" style="shape=partialRectangle;html=1;whiteSpace=wrap;connectable=0;overflow=hidden;fillColor=none;top=0;left=0;bottom=0;right=0;pointerEvents=1;" parent="KJ-qH1atPCSQWbOXbqT6-49" vertex="1">
          <mxGeometry width="60" height="40" as="geometry">
            <mxRectangle width="60" height="40" as="alternateBounds" />
          </mxGeometry>
        </mxCell>
        <mxCell id="KJ-qH1atPCSQWbOXbqT6-51" value="" style="shape=table;startSize=0;container=1;collapsible=0;childLayout=tableLayout;" parent="1" vertex="1">
          <mxGeometry x="301" y="244" width="60" height="40" as="geometry" />
        </mxCell>
        <mxCell id="KJ-qH1atPCSQWbOXbqT6-52" value="" style="shape=partialRectangle;collapsible=0;dropTarget=0;pointerEvents=0;fillColor=none;top=0;left=0;bottom=0;right=0;points=[[0,0.5],[1,0.5]];portConstraint=eastwest;" parent="KJ-qH1atPCSQWbOXbqT6-51" vertex="1">
          <mxGeometry width="60" height="40" as="geometry" />
        </mxCell>
        <mxCell id="KJ-qH1atPCSQWbOXbqT6-53" value="IF2" style="shape=partialRectangle;html=1;whiteSpace=wrap;connectable=0;overflow=hidden;fillColor=none;top=0;left=0;bottom=0;right=0;pointerEvents=1;" parent="KJ-qH1atPCSQWbOXbqT6-52" vertex="1">
          <mxGeometry width="60" height="40" as="geometry">
            <mxRectangle width="60" height="40" as="alternateBounds" />
          </mxGeometry>
        </mxCell>
        <mxCell id="KJ-qH1atPCSQWbOXbqT6-54" value="" style="shape=table;startSize=0;container=1;collapsible=0;childLayout=tableLayout;" parent="1" vertex="1">
          <mxGeometry x="361" y="244" width="60" height="40" as="geometry" />
        </mxCell>
        <mxCell id="KJ-qH1atPCSQWbOXbqT6-55" value="" style="shape=partialRectangle;collapsible=0;dropTarget=0;pointerEvents=0;fillColor=none;top=0;left=0;bottom=0;right=0;points=[[0,0.5],[1,0.5]];portConstraint=eastwest;" parent="KJ-qH1atPCSQWbOXbqT6-54" vertex="1">
          <mxGeometry width="60" height="40" as="geometry" />
        </mxCell>
        <mxCell id="KJ-qH1atPCSQWbOXbqT6-56" value="ID" style="shape=partialRectangle;html=1;whiteSpace=wrap;connectable=0;overflow=hidden;fillColor=none;top=0;left=0;bottom=0;right=0;pointerEvents=1;" parent="KJ-qH1atPCSQWbOXbqT6-55" vertex="1">
          <mxGeometry width="60" height="40" as="geometry">
            <mxRectangle width="60" height="40" as="alternateBounds" />
          </mxGeometry>
        </mxCell>
        <mxCell id="KJ-qH1atPCSQWbOXbqT6-57" value="" style="shape=partialRectangle;collapsible=0;dropTarget=0;pointerEvents=0;fillColor=none;top=0;left=0;bottom=0;right=0;points=[[0,0.5],[1,0.5]];portConstraint=eastwest;" parent="1" vertex="1">
          <mxGeometry x="421" y="244" width="60" height="40" as="geometry" />
        </mxCell>
        <mxCell id="KJ-qH1atPCSQWbOXbqT6-58" value="" style="shape=partialRectangle;html=1;whiteSpace=wrap;connectable=0;overflow=hidden;fillColor=none;top=0;left=0;bottom=0;right=0;pointerEvents=1;" parent="KJ-qH1atPCSQWbOXbqT6-57" vertex="1">
          <mxGeometry width="60" height="40" as="geometry">
            <mxRectangle width="60" height="40" as="alternateBounds" />
          </mxGeometry>
        </mxCell>
        <mxCell id="KJ-qH1atPCSQWbOXbqT6-59" value="" style="shape=table;startSize=0;container=1;collapsible=0;childLayout=tableLayout;" parent="1" vertex="1">
          <mxGeometry x="421" y="244" width="60" height="40" as="geometry" />
        </mxCell>
        <mxCell id="KJ-qH1atPCSQWbOXbqT6-60" value="" style="shape=partialRectangle;collapsible=0;dropTarget=0;pointerEvents=0;fillColor=none;top=0;left=0;bottom=0;right=0;points=[[0,0.5],[1,0.5]];portConstraint=eastwest;" parent="KJ-qH1atPCSQWbOXbqT6-59" vertex="1">
          <mxGeometry width="60" height="40" as="geometry" />
        </mxCell>
        <mxCell id="KJ-qH1atPCSQWbOXbqT6-61" value="ID" style="shape=partialRectangle;html=1;whiteSpace=wrap;connectable=0;overflow=hidden;fillColor=none;top=0;left=0;bottom=0;right=0;pointerEvents=1;" parent="KJ-qH1atPCSQWbOXbqT6-60" vertex="1">
          <mxGeometry width="60" height="40" as="geometry">
            <mxRectangle width="60" height="40" as="alternateBounds" />
          </mxGeometry>
        </mxCell>
        <mxCell id="KJ-qH1atPCSQWbOXbqT6-62" value="" style="shape=table;startSize=0;container=1;collapsible=0;childLayout=tableLayout;" parent="1" vertex="1">
          <mxGeometry x="481" y="244" width="60" height="40" as="geometry" />
        </mxCell>
        <mxCell id="KJ-qH1atPCSQWbOXbqT6-63" value="" style="shape=partialRectangle;collapsible=0;dropTarget=0;pointerEvents=0;fillColor=none;top=0;left=0;bottom=0;right=0;points=[[0,0.5],[1,0.5]];portConstraint=eastwest;" parent="KJ-qH1atPCSQWbOXbqT6-62" vertex="1">
          <mxGeometry width="60" height="40" as="geometry" />
        </mxCell>
        <mxCell id="KJ-qH1atPCSQWbOXbqT6-64" value="ID" style="shape=partialRectangle;html=1;whiteSpace=wrap;connectable=0;overflow=hidden;fillColor=none;top=0;left=0;bottom=0;right=0;pointerEvents=1;" parent="KJ-qH1atPCSQWbOXbqT6-63" vertex="1">
          <mxGeometry width="60" height="40" as="geometry">
            <mxRectangle width="60" height="40" as="alternateBounds" />
          </mxGeometry>
        </mxCell>
        <mxCell id="KJ-qH1atPCSQWbOXbqT6-65" value="" style="shape=partialRectangle;collapsible=0;dropTarget=0;pointerEvents=0;fillColor=none;top=0;left=0;bottom=0;right=0;points=[[0,0.5],[1,0.5]];portConstraint=eastwest;" parent="1" vertex="1">
          <mxGeometry x="541" y="244" width="60" height="40" as="geometry" />
        </mxCell>
        <mxCell id="KJ-qH1atPCSQWbOXbqT6-66" value="" style="shape=partialRectangle;html=1;whiteSpace=wrap;connectable=0;overflow=hidden;fillColor=none;top=0;left=0;bottom=0;right=0;pointerEvents=1;" parent="KJ-qH1atPCSQWbOXbqT6-65" vertex="1">
          <mxGeometry width="60" height="40" as="geometry">
            <mxRectangle width="60" height="40" as="alternateBounds" />
          </mxGeometry>
        </mxCell>
        <mxCell id="KJ-qH1atPCSQWbOXbqT6-67" value="" style="shape=table;startSize=0;container=1;collapsible=0;childLayout=tableLayout;" parent="1" vertex="1">
          <mxGeometry x="541" y="244" width="60" height="40" as="geometry" />
        </mxCell>
        <mxCell id="KJ-qH1atPCSQWbOXbqT6-68" value="" style="shape=partialRectangle;collapsible=0;dropTarget=0;pointerEvents=0;fillColor=none;top=0;left=0;bottom=0;right=0;points=[[0,0.5],[1,0.5]];portConstraint=eastwest;" parent="KJ-qH1atPCSQWbOXbqT6-67" vertex="1">
          <mxGeometry width="60" height="40" as="geometry" />
        </mxCell>
        <mxCell id="KJ-qH1atPCSQWbOXbqT6-69" value="ID" style="shape=partialRectangle;html=1;whiteSpace=wrap;connectable=0;overflow=hidden;fillColor=none;top=0;left=0;bottom=0;right=0;pointerEvents=1;" parent="KJ-qH1atPCSQWbOXbqT6-68" vertex="1">
          <mxGeometry width="60" height="40" as="geometry">
            <mxRectangle width="60" height="40" as="alternateBounds" />
          </mxGeometry>
        </mxCell>
        <mxCell id="KJ-qH1atPCSQWbOXbqT6-70" value="" style="shape=table;startSize=0;container=1;collapsible=0;childLayout=tableLayout;" parent="1" vertex="1">
          <mxGeometry x="601" y="244" width="60" height="40" as="geometry" />
        </mxCell>
        <mxCell id="KJ-qH1atPCSQWbOXbqT6-71" value="" style="shape=partialRectangle;collapsible=0;dropTarget=0;pointerEvents=0;fillColor=none;top=0;left=0;bottom=0;right=0;points=[[0,0.5],[1,0.5]];portConstraint=eastwest;" parent="KJ-qH1atPCSQWbOXbqT6-70" vertex="1">
          <mxGeometry width="60" height="40" as="geometry" />
        </mxCell>
        <mxCell id="KJ-qH1atPCSQWbOXbqT6-72" value="EX" style="shape=partialRectangle;html=1;whiteSpace=wrap;connectable=0;overflow=hidden;fillColor=none;top=0;left=0;bottom=0;right=0;pointerEvents=1;" parent="KJ-qH1atPCSQWbOXbqT6-71" vertex="1">
          <mxGeometry width="60" height="40" as="geometry">
            <mxRectangle width="60" height="40" as="alternateBounds" />
          </mxGeometry>
        </mxCell>
        <mxCell id="KJ-qH1atPCSQWbOXbqT6-73" value="" style="shape=partialRectangle;collapsible=0;dropTarget=0;pointerEvents=0;fillColor=none;top=0;left=0;bottom=0;right=0;points=[[0,0.5],[1,0.5]];portConstraint=eastwest;" parent="1" vertex="1">
          <mxGeometry x="661" y="244" width="60" height="40" as="geometry" />
        </mxCell>
        <mxCell id="KJ-qH1atPCSQWbOXbqT6-74" value="" style="shape=partialRectangle;html=1;whiteSpace=wrap;connectable=0;overflow=hidden;fillColor=none;top=0;left=0;bottom=0;right=0;pointerEvents=1;" parent="KJ-qH1atPCSQWbOXbqT6-73" vertex="1">
          <mxGeometry width="60" height="40" as="geometry">
            <mxRectangle width="60" height="40" as="alternateBounds" />
          </mxGeometry>
        </mxCell>
        <mxCell id="KJ-qH1atPCSQWbOXbqT6-75" value="" style="shape=table;startSize=0;container=1;collapsible=0;childLayout=tableLayout;" parent="1" vertex="1">
          <mxGeometry x="661" y="244" width="60" height="40" as="geometry" />
        </mxCell>
        <mxCell id="KJ-qH1atPCSQWbOXbqT6-76" value="" style="shape=partialRectangle;collapsible=0;dropTarget=0;pointerEvents=0;fillColor=none;top=0;left=0;bottom=0;right=0;points=[[0,0.5],[1,0.5]];portConstraint=eastwest;" parent="KJ-qH1atPCSQWbOXbqT6-75" vertex="1">
          <mxGeometry width="60" height="40" as="geometry" />
        </mxCell>
        <mxCell id="KJ-qH1atPCSQWbOXbqT6-77" value="MEM1" style="shape=partialRectangle;html=1;whiteSpace=wrap;connectable=0;overflow=hidden;fillColor=none;top=0;left=0;bottom=0;right=0;pointerEvents=1;" parent="KJ-qH1atPCSQWbOXbqT6-76" vertex="1">
          <mxGeometry width="60" height="40" as="geometry">
            <mxRectangle width="60" height="40" as="alternateBounds" />
          </mxGeometry>
        </mxCell>
        <mxCell id="KJ-qH1atPCSQWbOXbqT6-78" value="" style="shape=table;startSize=0;container=1;collapsible=0;childLayout=tableLayout;" parent="1" vertex="1">
          <mxGeometry x="721" y="244" width="60" height="40" as="geometry" />
        </mxCell>
        <mxCell id="KJ-qH1atPCSQWbOXbqT6-79" value="" style="shape=partialRectangle;collapsible=0;dropTarget=0;pointerEvents=0;fillColor=none;top=0;left=0;bottom=0;right=0;points=[[0,0.5],[1,0.5]];portConstraint=eastwest;" parent="KJ-qH1atPCSQWbOXbqT6-78" vertex="1">
          <mxGeometry width="60" height="40" as="geometry" />
        </mxCell>
        <mxCell id="KJ-qH1atPCSQWbOXbqT6-80" value="MEM2" style="shape=partialRectangle;html=1;whiteSpace=wrap;connectable=0;overflow=hidden;fillColor=none;top=0;left=0;bottom=0;right=0;pointerEvents=1;" parent="KJ-qH1atPCSQWbOXbqT6-79" vertex="1">
          <mxGeometry width="60" height="40" as="geometry">
            <mxRectangle width="60" height="40" as="alternateBounds" />
          </mxGeometry>
        </mxCell>
        <mxCell id="KJ-qH1atPCSQWbOXbqT6-81" value="" style="shape=table;startSize=0;container=1;collapsible=0;childLayout=tableLayout;" parent="1" vertex="1">
          <mxGeometry x="781" y="244" width="60" height="40" as="geometry" />
        </mxCell>
        <mxCell id="KJ-qH1atPCSQWbOXbqT6-82" value="" style="shape=partialRectangle;collapsible=0;dropTarget=0;pointerEvents=0;fillColor=none;top=0;left=0;bottom=0;right=0;points=[[0,0.5],[1,0.5]];portConstraint=eastwest;" parent="KJ-qH1atPCSQWbOXbqT6-81" vertex="1">
          <mxGeometry width="60" height="40" as="geometry" />
        </mxCell>
        <mxCell id="KJ-qH1atPCSQWbOXbqT6-83" value="WB" style="shape=partialRectangle;html=1;whiteSpace=wrap;connectable=0;overflow=hidden;fillColor=none;top=0;left=0;bottom=0;right=0;pointerEvents=1;" parent="KJ-qH1atPCSQWbOXbqT6-82" vertex="1">
          <mxGeometry width="60" height="40" as="geometry">
            <mxRectangle width="60" height="40" as="alternateBounds" />
          </mxGeometry>
        </mxCell>
        <mxCell id="KJ-qH1atPCSQWbOXbqT6-84" value="" style="shape=table;startSize=0;container=1;collapsible=0;childLayout=tableLayout;" parent="1" vertex="1">
          <mxGeometry x="301" y="311" width="60" height="40" as="geometry" />
        </mxCell>
        <mxCell id="KJ-qH1atPCSQWbOXbqT6-85" value="" style="shape=partialRectangle;collapsible=0;dropTarget=0;pointerEvents=0;fillColor=none;top=0;left=0;bottom=0;right=0;points=[[0,0.5],[1,0.5]];portConstraint=eastwest;" parent="KJ-qH1atPCSQWbOXbqT6-84" vertex="1">
          <mxGeometry width="60" height="40" as="geometry" />
        </mxCell>
        <mxCell id="KJ-qH1atPCSQWbOXbqT6-86" value="IF1" style="shape=partialRectangle;html=1;whiteSpace=wrap;connectable=0;overflow=hidden;fillColor=none;top=0;left=0;bottom=0;right=0;pointerEvents=1;" parent="KJ-qH1atPCSQWbOXbqT6-85" vertex="1">
          <mxGeometry width="60" height="40" as="geometry">
            <mxRectangle width="60" height="40" as="alternateBounds" />
          </mxGeometry>
        </mxCell>
        <mxCell id="KJ-qH1atPCSQWbOXbqT6-87" value="" style="shape=partialRectangle;collapsible=0;dropTarget=0;pointerEvents=0;fillColor=none;top=0;left=0;bottom=0;right=0;points=[[0,0.5],[1,0.5]];portConstraint=eastwest;" parent="1" vertex="1">
          <mxGeometry x="361" y="311" width="60" height="40" as="geometry" />
        </mxCell>
        <mxCell id="KJ-qH1atPCSQWbOXbqT6-88" value="" style="shape=partialRectangle;html=1;whiteSpace=wrap;connectable=0;overflow=hidden;fillColor=none;top=0;left=0;bottom=0;right=0;pointerEvents=1;" parent="KJ-qH1atPCSQWbOXbqT6-87" vertex="1">
          <mxGeometry width="60" height="40" as="geometry">
            <mxRectangle width="60" height="40" as="alternateBounds" />
          </mxGeometry>
        </mxCell>
        <mxCell id="KJ-qH1atPCSQWbOXbqT6-89" value="" style="shape=table;startSize=0;container=1;collapsible=0;childLayout=tableLayout;" parent="1" vertex="1">
          <mxGeometry x="361" y="311" width="60" height="40" as="geometry" />
        </mxCell>
        <mxCell id="KJ-qH1atPCSQWbOXbqT6-90" value="" style="shape=partialRectangle;collapsible=0;dropTarget=0;pointerEvents=0;fillColor=none;top=0;left=0;bottom=0;right=0;points=[[0,0.5],[1,0.5]];portConstraint=eastwest;" parent="KJ-qH1atPCSQWbOXbqT6-89" vertex="1">
          <mxGeometry width="60" height="40" as="geometry" />
        </mxCell>
        <mxCell id="KJ-qH1atPCSQWbOXbqT6-91" value="IF2" style="shape=partialRectangle;html=1;whiteSpace=wrap;connectable=0;overflow=hidden;fillColor=none;top=0;left=0;bottom=0;right=0;pointerEvents=1;" parent="KJ-qH1atPCSQWbOXbqT6-90" vertex="1">
          <mxGeometry width="60" height="40" as="geometry">
            <mxRectangle width="60" height="40" as="alternateBounds" />
          </mxGeometry>
        </mxCell>
        <mxCell id="KJ-qH1atPCSQWbOXbqT6-92" value="" style="shape=table;startSize=0;container=1;collapsible=0;childLayout=tableLayout;" parent="1" vertex="1">
          <mxGeometry x="421" y="311" width="60" height="40" as="geometry" />
        </mxCell>
        <mxCell id="KJ-qH1atPCSQWbOXbqT6-93" value="" style="shape=partialRectangle;collapsible=0;dropTarget=0;pointerEvents=0;fillColor=none;top=0;left=0;bottom=0;right=0;points=[[0,0.5],[1,0.5]];portConstraint=eastwest;" parent="KJ-qH1atPCSQWbOXbqT6-92" vertex="1">
          <mxGeometry width="60" height="40" as="geometry" />
        </mxCell>
        <mxCell id="KJ-qH1atPCSQWbOXbqT6-94" value="IF2" style="shape=partialRectangle;html=1;whiteSpace=wrap;connectable=0;overflow=hidden;fillColor=none;top=0;left=0;bottom=0;right=0;pointerEvents=1;" parent="KJ-qH1atPCSQWbOXbqT6-93" vertex="1">
          <mxGeometry width="60" height="40" as="geometry">
            <mxRectangle width="60" height="40" as="alternateBounds" />
          </mxGeometry>
        </mxCell>
        <mxCell id="KJ-qH1atPCSQWbOXbqT6-95" value="" style="shape=partialRectangle;collapsible=0;dropTarget=0;pointerEvents=0;fillColor=none;top=0;left=0;bottom=0;right=0;points=[[0,0.5],[1,0.5]];portConstraint=eastwest;" parent="1" vertex="1">
          <mxGeometry x="481" y="311" width="60" height="40" as="geometry" />
        </mxCell>
        <mxCell id="KJ-qH1atPCSQWbOXbqT6-96" value="" style="shape=partialRectangle;html=1;whiteSpace=wrap;connectable=0;overflow=hidden;fillColor=none;top=0;left=0;bottom=0;right=0;pointerEvents=1;" parent="KJ-qH1atPCSQWbOXbqT6-95" vertex="1">
          <mxGeometry width="60" height="40" as="geometry">
            <mxRectangle width="60" height="40" as="alternateBounds" />
          </mxGeometry>
        </mxCell>
        <mxCell id="KJ-qH1atPCSQWbOXbqT6-97" value="" style="shape=table;startSize=0;container=1;collapsible=0;childLayout=tableLayout;" parent="1" vertex="1">
          <mxGeometry x="481" y="311" width="60" height="40" as="geometry" />
        </mxCell>
        <mxCell id="KJ-qH1atPCSQWbOXbqT6-98" value="" style="shape=partialRectangle;collapsible=0;dropTarget=0;pointerEvents=0;fillColor=none;top=0;left=0;bottom=0;right=0;points=[[0,0.5],[1,0.5]];portConstraint=eastwest;" parent="KJ-qH1atPCSQWbOXbqT6-97" vertex="1">
          <mxGeometry width="60" height="40" as="geometry" />
        </mxCell>
        <mxCell id="KJ-qH1atPCSQWbOXbqT6-99" value="IF2" style="shape=partialRectangle;html=1;whiteSpace=wrap;connectable=0;overflow=hidden;fillColor=none;top=0;left=0;bottom=0;right=0;pointerEvents=1;" parent="KJ-qH1atPCSQWbOXbqT6-98" vertex="1">
          <mxGeometry width="60" height="40" as="geometry">
            <mxRectangle width="60" height="40" as="alternateBounds" />
          </mxGeometry>
        </mxCell>
        <mxCell id="KJ-qH1atPCSQWbOXbqT6-100" value="" style="shape=table;startSize=0;container=1;collapsible=0;childLayout=tableLayout;" parent="1" vertex="1">
          <mxGeometry x="541" y="311" width="60" height="40" as="geometry" />
        </mxCell>
        <mxCell id="KJ-qH1atPCSQWbOXbqT6-101" value="" style="shape=partialRectangle;collapsible=0;dropTarget=0;pointerEvents=0;fillColor=none;top=0;left=0;bottom=0;right=0;points=[[0,0.5],[1,0.5]];portConstraint=eastwest;" parent="KJ-qH1atPCSQWbOXbqT6-100" vertex="1">
          <mxGeometry width="60" height="40" as="geometry" />
        </mxCell>
        <mxCell id="KJ-qH1atPCSQWbOXbqT6-102" value="IF2" style="shape=partialRectangle;html=1;whiteSpace=wrap;connectable=0;overflow=hidden;fillColor=none;top=0;left=0;bottom=0;right=0;pointerEvents=1;" parent="KJ-qH1atPCSQWbOXbqT6-101" vertex="1">
          <mxGeometry width="60" height="40" as="geometry">
            <mxRectangle width="60" height="40" as="alternateBounds" />
          </mxGeometry>
        </mxCell>
        <mxCell id="KJ-qH1atPCSQWbOXbqT6-103" value="" style="shape=partialRectangle;collapsible=0;dropTarget=0;pointerEvents=0;fillColor=none;top=0;left=0;bottom=0;right=0;points=[[0,0.5],[1,0.5]];portConstraint=eastwest;" parent="1" vertex="1">
          <mxGeometry x="601" y="311" width="60" height="40" as="geometry" />
        </mxCell>
        <mxCell id="KJ-qH1atPCSQWbOXbqT6-104" value="" style="shape=partialRectangle;html=1;whiteSpace=wrap;connectable=0;overflow=hidden;fillColor=none;top=0;left=0;bottom=0;right=0;pointerEvents=1;" parent="KJ-qH1atPCSQWbOXbqT6-103" vertex="1">
          <mxGeometry width="60" height="40" as="geometry">
            <mxRectangle width="60" height="40" as="alternateBounds" />
          </mxGeometry>
        </mxCell>
        <mxCell id="KJ-qH1atPCSQWbOXbqT6-105" value="" style="shape=table;startSize=0;container=1;collapsible=0;childLayout=tableLayout;" parent="1" vertex="1">
          <mxGeometry x="601" y="311" width="60" height="40" as="geometry" />
        </mxCell>
        <mxCell id="KJ-qH1atPCSQWbOXbqT6-106" value="" style="shape=partialRectangle;collapsible=0;dropTarget=0;pointerEvents=0;fillColor=none;top=0;left=0;bottom=0;right=0;points=[[0,0.5],[1,0.5]];portConstraint=eastwest;" parent="KJ-qH1atPCSQWbOXbqT6-105" vertex="1">
          <mxGeometry width="60" height="40" as="geometry" />
        </mxCell>
        <mxCell id="KJ-qH1atPCSQWbOXbqT6-107" value="ID" style="shape=partialRectangle;html=1;whiteSpace=wrap;connectable=0;overflow=hidden;fillColor=none;top=0;left=0;bottom=0;right=0;pointerEvents=1;" parent="KJ-qH1atPCSQWbOXbqT6-106" vertex="1">
          <mxGeometry width="60" height="40" as="geometry">
            <mxRectangle width="60" height="40" as="alternateBounds" />
          </mxGeometry>
        </mxCell>
        <mxCell id="KJ-qH1atPCSQWbOXbqT6-111" value="" style="shape=partialRectangle;collapsible=0;dropTarget=0;pointerEvents=0;fillColor=none;top=0;left=0;bottom=0;right=0;points=[[0,0.5],[1,0.5]];portConstraint=eastwest;" parent="1" vertex="1">
          <mxGeometry x="721" y="311" width="60" height="40" as="geometry" />
        </mxCell>
        <mxCell id="KJ-qH1atPCSQWbOXbqT6-112" value="" style="shape=partialRectangle;html=1;whiteSpace=wrap;connectable=0;overflow=hidden;fillColor=none;top=0;left=0;bottom=0;right=0;pointerEvents=1;" parent="KJ-qH1atPCSQWbOXbqT6-111" vertex="1">
          <mxGeometry width="60" height="40" as="geometry">
            <mxRectangle width="60" height="40" as="alternateBounds" />
          </mxGeometry>
        </mxCell>
        <mxCell id="KJ-qH1atPCSQWbOXbqT6-122" value="" style="shape=table;startSize=0;container=1;collapsible=0;childLayout=tableLayout;" parent="1" vertex="1">
          <mxGeometry x="361" y="387" width="60" height="40" as="geometry" />
        </mxCell>
        <mxCell id="KJ-qH1atPCSQWbOXbqT6-123" value="" style="shape=partialRectangle;collapsible=0;dropTarget=0;pointerEvents=0;fillColor=none;top=0;left=0;bottom=0;right=0;points=[[0,0.5],[1,0.5]];portConstraint=eastwest;" parent="KJ-qH1atPCSQWbOXbqT6-122" vertex="1">
          <mxGeometry width="60" height="40" as="geometry" />
        </mxCell>
        <mxCell id="KJ-qH1atPCSQWbOXbqT6-124" value="IF1" style="shape=partialRectangle;html=1;whiteSpace=wrap;connectable=0;overflow=hidden;fillColor=none;top=0;left=0;bottom=0;right=0;pointerEvents=1;" parent="KJ-qH1atPCSQWbOXbqT6-123" vertex="1">
          <mxGeometry width="60" height="40" as="geometry">
            <mxRectangle width="60" height="40" as="alternateBounds" />
          </mxGeometry>
        </mxCell>
        <mxCell id="KJ-qH1atPCSQWbOXbqT6-125" value="" style="shape=partialRectangle;collapsible=0;dropTarget=0;pointerEvents=0;fillColor=none;top=0;left=0;bottom=0;right=0;points=[[0,0.5],[1,0.5]];portConstraint=eastwest;" parent="1" vertex="1">
          <mxGeometry x="421" y="387" width="60" height="40" as="geometry" />
        </mxCell>
        <mxCell id="KJ-qH1atPCSQWbOXbqT6-126" value="" style="shape=partialRectangle;html=1;whiteSpace=wrap;connectable=0;overflow=hidden;fillColor=none;top=0;left=0;bottom=0;right=0;pointerEvents=1;" parent="KJ-qH1atPCSQWbOXbqT6-125" vertex="1">
          <mxGeometry width="60" height="40" as="geometry">
            <mxRectangle width="60" height="40" as="alternateBounds" />
          </mxGeometry>
        </mxCell>
        <mxCell id="KJ-qH1atPCSQWbOXbqT6-127" value="" style="shape=table;startSize=0;container=1;collapsible=0;childLayout=tableLayout;" parent="1" vertex="1">
          <mxGeometry x="421" y="387" width="60" height="40" as="geometry" />
        </mxCell>
        <mxCell id="KJ-qH1atPCSQWbOXbqT6-128" value="" style="shape=partialRectangle;collapsible=0;dropTarget=0;pointerEvents=0;fillColor=none;top=0;left=0;bottom=0;right=0;points=[[0,0.5],[1,0.5]];portConstraint=eastwest;" parent="KJ-qH1atPCSQWbOXbqT6-127" vertex="1">
          <mxGeometry width="60" height="40" as="geometry" />
        </mxCell>
        <mxCell id="KJ-qH1atPCSQWbOXbqT6-129" value="IF1" style="shape=partialRectangle;html=1;whiteSpace=wrap;connectable=0;overflow=hidden;fillColor=none;top=0;left=0;bottom=0;right=0;pointerEvents=1;" parent="KJ-qH1atPCSQWbOXbqT6-128" vertex="1">
          <mxGeometry width="60" height="40" as="geometry">
            <mxRectangle width="60" height="40" as="alternateBounds" />
          </mxGeometry>
        </mxCell>
        <mxCell id="KJ-qH1atPCSQWbOXbqT6-130" value="" style="shape=table;startSize=0;container=1;collapsible=0;childLayout=tableLayout;" parent="1" vertex="1">
          <mxGeometry x="481" y="387" width="60" height="40" as="geometry" />
        </mxCell>
        <mxCell id="KJ-qH1atPCSQWbOXbqT6-131" value="" style="shape=partialRectangle;collapsible=0;dropTarget=0;pointerEvents=0;fillColor=none;top=0;left=0;bottom=0;right=0;points=[[0,0.5],[1,0.5]];portConstraint=eastwest;" parent="KJ-qH1atPCSQWbOXbqT6-130" vertex="1">
          <mxGeometry width="60" height="40" as="geometry" />
        </mxCell>
        <mxCell id="KJ-qH1atPCSQWbOXbqT6-132" value="IF1" style="shape=partialRectangle;html=1;whiteSpace=wrap;connectable=0;overflow=hidden;fillColor=none;top=0;left=0;bottom=0;right=0;pointerEvents=1;" parent="KJ-qH1atPCSQWbOXbqT6-131" vertex="1">
          <mxGeometry width="60" height="40" as="geometry">
            <mxRectangle width="60" height="40" as="alternateBounds" />
          </mxGeometry>
        </mxCell>
        <mxCell id="KJ-qH1atPCSQWbOXbqT6-133" value="" style="shape=partialRectangle;collapsible=0;dropTarget=0;pointerEvents=0;fillColor=none;top=0;left=0;bottom=0;right=0;points=[[0,0.5],[1,0.5]];portConstraint=eastwest;" parent="1" vertex="1">
          <mxGeometry x="541" y="387" width="60" height="40" as="geometry" />
        </mxCell>
        <mxCell id="KJ-qH1atPCSQWbOXbqT6-134" value="" style="shape=partialRectangle;html=1;whiteSpace=wrap;connectable=0;overflow=hidden;fillColor=none;top=0;left=0;bottom=0;right=0;pointerEvents=1;" parent="KJ-qH1atPCSQWbOXbqT6-133" vertex="1">
          <mxGeometry width="60" height="40" as="geometry">
            <mxRectangle width="60" height="40" as="alternateBounds" />
          </mxGeometry>
        </mxCell>
        <mxCell id="KJ-qH1atPCSQWbOXbqT6-135" value="" style="shape=table;startSize=0;container=1;collapsible=0;childLayout=tableLayout;" parent="1" vertex="1">
          <mxGeometry x="541" y="387" width="60" height="40" as="geometry" />
        </mxCell>
        <mxCell id="KJ-qH1atPCSQWbOXbqT6-136" value="" style="shape=partialRectangle;collapsible=0;dropTarget=0;pointerEvents=0;fillColor=none;top=0;left=0;bottom=0;right=0;points=[[0,0.5],[1,0.5]];portConstraint=eastwest;" parent="KJ-qH1atPCSQWbOXbqT6-135" vertex="1">
          <mxGeometry width="60" height="40" as="geometry" />
        </mxCell>
        <mxCell id="KJ-qH1atPCSQWbOXbqT6-137" value="IF1" style="shape=partialRectangle;html=1;whiteSpace=wrap;connectable=0;overflow=hidden;fillColor=none;top=0;left=0;bottom=0;right=0;pointerEvents=1;" parent="KJ-qH1atPCSQWbOXbqT6-136" vertex="1">
          <mxGeometry width="60" height="40" as="geometry">
            <mxRectangle width="60" height="40" as="alternateBounds" />
          </mxGeometry>
        </mxCell>
        <mxCell id="KJ-qH1atPCSQWbOXbqT6-138" value="" style="shape=table;startSize=0;container=1;collapsible=0;childLayout=tableLayout;" parent="1" vertex="1">
          <mxGeometry x="601" y="387" width="60" height="40" as="geometry" />
        </mxCell>
        <mxCell id="KJ-qH1atPCSQWbOXbqT6-139" value="" style="shape=partialRectangle;collapsible=0;dropTarget=0;pointerEvents=0;fillColor=none;top=0;left=0;bottom=0;right=0;points=[[0,0.5],[1,0.5]];portConstraint=eastwest;" parent="KJ-qH1atPCSQWbOXbqT6-138" vertex="1">
          <mxGeometry width="60" height="40" as="geometry" />
        </mxCell>
        <mxCell id="KJ-qH1atPCSQWbOXbqT6-140" value="IF2" style="shape=partialRectangle;html=1;whiteSpace=wrap;connectable=0;overflow=hidden;fillColor=none;top=0;left=0;bottom=0;right=0;pointerEvents=1;" parent="KJ-qH1atPCSQWbOXbqT6-139" vertex="1">
          <mxGeometry width="60" height="40" as="geometry">
            <mxRectangle width="60" height="40" as="alternateBounds" />
          </mxGeometry>
        </mxCell>
        <mxCell id="KJ-qH1atPCSQWbOXbqT6-141" value="" style="shape=partialRectangle;collapsible=0;dropTarget=0;pointerEvents=0;fillColor=none;top=0;left=0;bottom=0;right=0;points=[[0,0.5],[1,0.5]];portConstraint=eastwest;" parent="1" vertex="1">
          <mxGeometry x="661" y="387" width="60" height="40" as="geometry" />
        </mxCell>
        <mxCell id="KJ-qH1atPCSQWbOXbqT6-142" value="" style="shape=partialRectangle;html=1;whiteSpace=wrap;connectable=0;overflow=hidden;fillColor=none;top=0;left=0;bottom=0;right=0;pointerEvents=1;" parent="KJ-qH1atPCSQWbOXbqT6-141" vertex="1">
          <mxGeometry width="60" height="40" as="geometry">
            <mxRectangle width="60" height="40" as="alternateBounds" />
          </mxGeometry>
        </mxCell>
        <mxCell id="KJ-qH1atPCSQWbOXbqT6-149" value="" style="shape=partialRectangle;collapsible=0;dropTarget=0;pointerEvents=0;fillColor=none;top=0;left=0;bottom=0;right=0;points=[[0,0.5],[1,0.5]];portConstraint=eastwest;" parent="1" vertex="1">
          <mxGeometry x="781" y="387" width="60" height="40" as="geometry" />
        </mxCell>
        <mxCell id="KJ-qH1atPCSQWbOXbqT6-150" value="" style="shape=partialRectangle;html=1;whiteSpace=wrap;connectable=0;overflow=hidden;fillColor=none;top=0;left=0;bottom=0;right=0;pointerEvents=1;" parent="KJ-qH1atPCSQWbOXbqT6-149" vertex="1">
          <mxGeometry width="60" height="40" as="geometry">
            <mxRectangle width="60" height="40" as="alternateBounds" />
          </mxGeometry>
        </mxCell>
        <mxCell id="KJ-qH1atPCSQWbOXbqT6-160" value="" style="shape=table;startSize=0;container=1;collapsible=0;childLayout=tableLayout;" parent="1" vertex="1">
          <mxGeometry x="601" y="465" width="60" height="40" as="geometry" />
        </mxCell>
        <mxCell id="KJ-qH1atPCSQWbOXbqT6-161" value="" style="shape=partialRectangle;collapsible=0;dropTarget=0;pointerEvents=0;fillColor=none;top=0;left=0;bottom=0;right=0;points=[[0,0.5],[1,0.5]];portConstraint=eastwest;" parent="KJ-qH1atPCSQWbOXbqT6-160" vertex="1">
          <mxGeometry width="60" height="40" as="geometry" />
        </mxCell>
        <mxCell id="KJ-qH1atPCSQWbOXbqT6-162" value="IF1" style="shape=partialRectangle;html=1;whiteSpace=wrap;connectable=0;overflow=hidden;fillColor=none;top=0;left=0;bottom=0;right=0;pointerEvents=1;" parent="KJ-qH1atPCSQWbOXbqT6-161" vertex="1">
          <mxGeometry width="60" height="40" as="geometry">
            <mxRectangle width="60" height="40" as="alternateBounds" />
          </mxGeometry>
        </mxCell>
        <mxCell id="KJ-qH1atPCSQWbOXbqT6-163" value="" style="shape=partialRectangle;collapsible=0;dropTarget=0;pointerEvents=0;fillColor=none;top=0;left=0;bottom=0;right=0;points=[[0,0.5],[1,0.5]];portConstraint=eastwest;" parent="1" vertex="1">
          <mxGeometry x="661" y="465" width="60" height="40" as="geometry" />
        </mxCell>
        <mxCell id="KJ-qH1atPCSQWbOXbqT6-164" value="" style="shape=partialRectangle;html=1;whiteSpace=wrap;connectable=0;overflow=hidden;fillColor=none;top=0;left=0;bottom=0;right=0;pointerEvents=1;" parent="KJ-qH1atPCSQWbOXbqT6-163" vertex="1">
          <mxGeometry width="60" height="40" as="geometry">
            <mxRectangle width="60" height="40" as="alternateBounds" />
          </mxGeometry>
        </mxCell>
        <mxCell id="KJ-qH1atPCSQWbOXbqT6-165" value="" style="shape=table;startSize=0;container=1;collapsible=0;childLayout=tableLayout;" parent="1" vertex="1">
          <mxGeometry x="661" y="465" width="60" height="40" as="geometry" />
        </mxCell>
        <mxCell id="KJ-qH1atPCSQWbOXbqT6-166" value="" style="shape=partialRectangle;collapsible=0;dropTarget=0;pointerEvents=0;fillColor=none;top=0;left=0;bottom=0;right=0;points=[[0,0.5],[1,0.5]];portConstraint=eastwest;" parent="KJ-qH1atPCSQWbOXbqT6-165" vertex="1">
          <mxGeometry width="60" height="40" as="geometry" />
        </mxCell>
        <mxCell id="KJ-qH1atPCSQWbOXbqT6-167" value="IF2" style="shape=partialRectangle;html=1;whiteSpace=wrap;connectable=0;overflow=hidden;fillColor=none;top=0;left=0;bottom=0;right=0;pointerEvents=1;" parent="KJ-qH1atPCSQWbOXbqT6-166" vertex="1">
          <mxGeometry width="60" height="40" as="geometry">
            <mxRectangle width="60" height="40" as="alternateBounds" />
          </mxGeometry>
        </mxCell>
        <mxCell id="KJ-qH1atPCSQWbOXbqT6-168" value="" style="shape=table;startSize=0;container=1;collapsible=0;childLayout=tableLayout;" parent="1" vertex="1">
          <mxGeometry x="721" y="465" width="60" height="40" as="geometry" />
        </mxCell>
        <mxCell id="KJ-qH1atPCSQWbOXbqT6-169" value="" style="shape=partialRectangle;collapsible=0;dropTarget=0;pointerEvents=0;fillColor=none;top=0;left=0;bottom=0;right=0;points=[[0,0.5],[1,0.5]];portConstraint=eastwest;" parent="KJ-qH1atPCSQWbOXbqT6-168" vertex="1">
          <mxGeometry width="60" height="40" as="geometry" />
        </mxCell>
        <mxCell id="KJ-qH1atPCSQWbOXbqT6-170" value="ID" style="shape=partialRectangle;html=1;whiteSpace=wrap;connectable=0;overflow=hidden;fillColor=none;top=0;left=0;bottom=0;right=0;pointerEvents=1;" parent="KJ-qH1atPCSQWbOXbqT6-169" vertex="1">
          <mxGeometry width="60" height="40" as="geometry">
            <mxRectangle width="60" height="40" as="alternateBounds" />
          </mxGeometry>
        </mxCell>
        <mxCell id="KJ-qH1atPCSQWbOXbqT6-171" value="" style="shape=partialRectangle;collapsible=0;dropTarget=0;pointerEvents=0;fillColor=none;top=0;left=0;bottom=0;right=0;points=[[0,0.5],[1,0.5]];portConstraint=eastwest;" parent="1" vertex="1">
          <mxGeometry x="781" y="465" width="60" height="40" as="geometry" />
        </mxCell>
        <mxCell id="KJ-qH1atPCSQWbOXbqT6-172" value="" style="shape=partialRectangle;html=1;whiteSpace=wrap;connectable=0;overflow=hidden;fillColor=none;top=0;left=0;bottom=0;right=0;pointerEvents=1;" parent="KJ-qH1atPCSQWbOXbqT6-171" vertex="1">
          <mxGeometry width="60" height="40" as="geometry">
            <mxRectangle width="60" height="40" as="alternateBounds" />
          </mxGeometry>
        </mxCell>
        <mxCell id="KJ-qH1atPCSQWbOXbqT6-173" value="" style="shape=table;startSize=0;container=1;collapsible=0;childLayout=tableLayout;" parent="1" vertex="1">
          <mxGeometry x="781" y="465" width="60" height="40" as="geometry" />
        </mxCell>
        <mxCell id="KJ-qH1atPCSQWbOXbqT6-174" value="" style="shape=partialRectangle;collapsible=0;dropTarget=0;pointerEvents=0;fillColor=none;top=0;left=0;bottom=0;right=0;points=[[0,0.5],[1,0.5]];portConstraint=eastwest;" parent="KJ-qH1atPCSQWbOXbqT6-173" vertex="1">
          <mxGeometry width="60" height="40" as="geometry" />
        </mxCell>
        <mxCell id="KJ-qH1atPCSQWbOXbqT6-175" value="EXE" style="shape=partialRectangle;html=1;whiteSpace=wrap;connectable=0;overflow=hidden;fillColor=none;top=0;left=0;bottom=0;right=0;pointerEvents=1;" parent="KJ-qH1atPCSQWbOXbqT6-174" vertex="1">
          <mxGeometry width="60" height="40" as="geometry">
            <mxRectangle width="60" height="40" as="alternateBounds" />
          </mxGeometry>
        </mxCell>
        <mxCell id="KJ-qH1atPCSQWbOXbqT6-176" value="" style="shape=table;startSize=0;container=1;collapsible=0;childLayout=tableLayout;" parent="1" vertex="1">
          <mxGeometry x="841" y="465" width="60" height="40" as="geometry" />
        </mxCell>
        <mxCell id="KJ-qH1atPCSQWbOXbqT6-177" value="" style="shape=partialRectangle;collapsible=0;dropTarget=0;pointerEvents=0;fillColor=none;top=0;left=0;bottom=0;right=0;points=[[0,0.5],[1,0.5]];portConstraint=eastwest;" parent="KJ-qH1atPCSQWbOXbqT6-176" vertex="1">
          <mxGeometry width="60" height="40" as="geometry" />
        </mxCell>
        <mxCell id="KJ-qH1atPCSQWbOXbqT6-178" value="MEM1" style="shape=partialRectangle;html=1;whiteSpace=wrap;connectable=0;overflow=hidden;fillColor=none;top=0;left=0;bottom=0;right=0;pointerEvents=1;" parent="KJ-qH1atPCSQWbOXbqT6-177" vertex="1">
          <mxGeometry width="60" height="40" as="geometry">
            <mxRectangle width="60" height="40" as="alternateBounds" />
          </mxGeometry>
        </mxCell>
        <mxCell id="KJ-qH1atPCSQWbOXbqT6-179" value="" style="shape=partialRectangle;collapsible=0;dropTarget=0;pointerEvents=0;fillColor=none;top=0;left=0;bottom=0;right=0;points=[[0,0.5],[1,0.5]];portConstraint=eastwest;" parent="1" vertex="1">
          <mxGeometry x="901" y="465" width="60" height="40" as="geometry" />
        </mxCell>
        <mxCell id="KJ-qH1atPCSQWbOXbqT6-180" value="" style="shape=partialRectangle;html=1;whiteSpace=wrap;connectable=0;overflow=hidden;fillColor=none;top=0;left=0;bottom=0;right=0;pointerEvents=1;" parent="KJ-qH1atPCSQWbOXbqT6-179" vertex="1">
          <mxGeometry width="60" height="40" as="geometry">
            <mxRectangle width="60" height="40" as="alternateBounds" />
          </mxGeometry>
        </mxCell>
        <mxCell id="KJ-qH1atPCSQWbOXbqT6-181" value="" style="shape=table;startSize=0;container=1;collapsible=0;childLayout=tableLayout;" parent="1" vertex="1">
          <mxGeometry x="901" y="465" width="60" height="40" as="geometry" />
        </mxCell>
        <mxCell id="KJ-qH1atPCSQWbOXbqT6-182" value="" style="shape=partialRectangle;collapsible=0;dropTarget=0;pointerEvents=0;fillColor=none;top=0;left=0;bottom=0;right=0;points=[[0,0.5],[1,0.5]];portConstraint=eastwest;" parent="KJ-qH1atPCSQWbOXbqT6-181" vertex="1">
          <mxGeometry width="60" height="40" as="geometry" />
        </mxCell>
        <mxCell id="KJ-qH1atPCSQWbOXbqT6-183" value="MEM2" style="shape=partialRectangle;html=1;whiteSpace=wrap;connectable=0;overflow=hidden;fillColor=none;top=0;left=0;bottom=0;right=0;pointerEvents=1;" parent="KJ-qH1atPCSQWbOXbqT6-182" vertex="1">
          <mxGeometry width="60" height="40" as="geometry">
            <mxRectangle width="60" height="40" as="alternateBounds" />
          </mxGeometry>
        </mxCell>
        <mxCell id="KJ-qH1atPCSQWbOXbqT6-184" value="" style="shape=table;startSize=0;container=1;collapsible=0;childLayout=tableLayout;" parent="1" vertex="1">
          <mxGeometry x="961" y="465" width="60" height="40" as="geometry" />
        </mxCell>
        <mxCell id="KJ-qH1atPCSQWbOXbqT6-185" value="" style="shape=partialRectangle;collapsible=0;dropTarget=0;pointerEvents=0;fillColor=none;top=0;left=0;bottom=0;right=0;points=[[0,0.5],[1,0.5]];portConstraint=eastwest;" parent="KJ-qH1atPCSQWbOXbqT6-184" vertex="1">
          <mxGeometry width="60" height="40" as="geometry" />
        </mxCell>
        <mxCell id="KJ-qH1atPCSQWbOXbqT6-186" value="WB" style="shape=partialRectangle;html=1;whiteSpace=wrap;connectable=0;overflow=hidden;fillColor=none;top=0;left=0;bottom=0;right=0;pointerEvents=1;" parent="KJ-qH1atPCSQWbOXbqT6-185" vertex="1">
          <mxGeometry width="60" height="40" as="geometry">
            <mxRectangle width="60" height="40" as="alternateBounds" />
          </mxGeometry>
        </mxCell>
        <mxCell id="KJ-qH1atPCSQWbOXbqT6-187" value="" style="shape=partialRectangle;collapsible=0;dropTarget=0;pointerEvents=0;fillColor=none;top=0;left=0;bottom=0;right=0;points=[[0,0.5],[1,0.5]];portConstraint=eastwest;" parent="1" vertex="1">
          <mxGeometry x="1021" y="465" width="60" height="40" as="geometry" />
        </mxCell>
        <mxCell id="KJ-qH1atPCSQWbOXbqT6-188" value="" style="shape=partialRectangle;html=1;whiteSpace=wrap;connectable=0;overflow=hidden;fillColor=none;top=0;left=0;bottom=0;right=0;pointerEvents=1;" parent="KJ-qH1atPCSQWbOXbqT6-187" vertex="1">
          <mxGeometry width="60" height="40" as="geometry">
            <mxRectangle width="60" height="40" as="alternateBounds" />
          </mxGeometry>
        </mxCell>
        <mxCell id="KJ-qH1atPCSQWbOXbqT6-198" value="L1" style="text;html=1;strokeColor=none;fillColor=none;align=center;verticalAlign=middle;whiteSpace=wrap;rounded=0;" parent="1" vertex="1">
          <mxGeometry x="85" y="179" width="60" height="30" as="geometry" />
        </mxCell>
        <mxCell id="KJ-qH1atPCSQWbOXbqT6-199" value="L2" style="text;html=1;strokeColor=none;fillColor=none;align=center;verticalAlign=middle;whiteSpace=wrap;rounded=0;" parent="1" vertex="1">
          <mxGeometry x="85" y="254" width="60" height="30" as="geometry" />
        </mxCell>
        <mxCell id="KJ-qH1atPCSQWbOXbqT6-200" value="L3(Killed)" style="text;html=1;strokeColor=none;fillColor=none;align=center;verticalAlign=middle;whiteSpace=wrap;rounded=0;" parent="1" vertex="1">
          <mxGeometry x="96" y="321" width="60" height="30" as="geometry" />
        </mxCell>
        <mxCell id="KJ-qH1atPCSQWbOXbqT6-201" value="L4(Killed)" style="text;html=1;strokeColor=none;fillColor=none;align=center;verticalAlign=middle;whiteSpace=wrap;rounded=0;" parent="1" vertex="1">
          <mxGeometry x="96" y="397" width="60" height="30" as="geometry" />
        </mxCell>
        <mxCell id="KJ-qH1atPCSQWbOXbqT6-202" value="L4" style="text;html=1;strokeColor=none;fillColor=none;align=center;verticalAlign=middle;whiteSpace=wrap;rounded=0;" parent="1" vertex="1">
          <mxGeometry x="85" y="475" width="60" height="30" as="geometry" />
        </mxCell>
        <mxCell id="KJ-qH1atPCSQWbOXbqT6-203" value="" style="verticalLabelPosition=bottom;verticalAlign=top;html=1;shape=mxgraph.basic.x;fillColor=#FF3333;strokeColor=#b85450;" parent="1" vertex="1">
          <mxGeometry x="694" y="317" width="31" height="28" as="geometry" />
        </mxCell>
        <mxCell id="KJ-qH1atPCSQWbOXbqT6-204" value="" style="verticalLabelPosition=bottom;verticalAlign=top;html=1;shape=mxgraph.basic.x;fillColor=#FF3333;strokeColor=#b85450;" parent="1" vertex="1">
          <mxGeometry x="694" y="391" width="31" height="28" as="geometry" />
        </mxCell>
        <mxCell id="KJ-qH1atPCSQWbOXbqT6-205" value="L5" style="text;html=1;strokeColor=none;fillColor=none;align=center;verticalAlign=middle;whiteSpace=wrap;rounded=0;" parent="1" vertex="1">
          <mxGeometry x="85" y="547" width="60" height="30" as="geometry" />
        </mxCell>
        <mxCell id="KJ-qH1atPCSQWbOXbqT6-206" value="" style="shape=table;startSize=0;container=1;collapsible=0;childLayout=tableLayout;" parent="1" vertex="1">
          <mxGeometry x="661" y="537" width="60" height="40" as="geometry" />
        </mxCell>
        <mxCell id="KJ-qH1atPCSQWbOXbqT6-207" value="" style="shape=partialRectangle;collapsible=0;dropTarget=0;pointerEvents=0;fillColor=none;top=0;left=0;bottom=0;right=0;points=[[0,0.5],[1,0.5]];portConstraint=eastwest;" parent="KJ-qH1atPCSQWbOXbqT6-206" vertex="1">
          <mxGeometry width="60" height="40" as="geometry" />
        </mxCell>
        <mxCell id="KJ-qH1atPCSQWbOXbqT6-208" value="IF1" style="shape=partialRectangle;html=1;whiteSpace=wrap;connectable=0;overflow=hidden;fillColor=none;top=0;left=0;bottom=0;right=0;pointerEvents=1;" parent="KJ-qH1atPCSQWbOXbqT6-207" vertex="1">
          <mxGeometry width="60" height="40" as="geometry">
            <mxRectangle width="60" height="40" as="alternateBounds" />
          </mxGeometry>
        </mxCell>
        <mxCell id="KJ-qH1atPCSQWbOXbqT6-209" value="" style="shape=partialRectangle;collapsible=0;dropTarget=0;pointerEvents=0;fillColor=none;top=0;left=0;bottom=0;right=0;points=[[0,0.5],[1,0.5]];portConstraint=eastwest;" parent="1" vertex="1">
          <mxGeometry x="721" y="537" width="60" height="40" as="geometry" />
        </mxCell>
        <mxCell id="KJ-qH1atPCSQWbOXbqT6-210" value="" style="shape=partialRectangle;html=1;whiteSpace=wrap;connectable=0;overflow=hidden;fillColor=none;top=0;left=0;bottom=0;right=0;pointerEvents=1;" parent="KJ-qH1atPCSQWbOXbqT6-209" vertex="1">
          <mxGeometry width="60" height="40" as="geometry">
            <mxRectangle width="60" height="40" as="alternateBounds" />
          </mxGeometry>
        </mxCell>
        <mxCell id="KJ-qH1atPCSQWbOXbqT6-211" value="" style="shape=table;startSize=0;container=1;collapsible=0;childLayout=tableLayout;" parent="1" vertex="1">
          <mxGeometry x="721" y="537" width="60" height="40" as="geometry" />
        </mxCell>
        <mxCell id="KJ-qH1atPCSQWbOXbqT6-212" value="" style="shape=partialRectangle;collapsible=0;dropTarget=0;pointerEvents=0;fillColor=none;top=0;left=0;bottom=0;right=0;points=[[0,0.5],[1,0.5]];portConstraint=eastwest;" parent="KJ-qH1atPCSQWbOXbqT6-211" vertex="1">
          <mxGeometry width="60" height="40" as="geometry" />
        </mxCell>
        <mxCell id="KJ-qH1atPCSQWbOXbqT6-213" value="IF2" style="shape=partialRectangle;html=1;whiteSpace=wrap;connectable=0;overflow=hidden;fillColor=none;top=0;left=0;bottom=0;right=0;pointerEvents=1;" parent="KJ-qH1atPCSQWbOXbqT6-212" vertex="1">
          <mxGeometry width="60" height="40" as="geometry">
            <mxRectangle width="60" height="40" as="alternateBounds" />
          </mxGeometry>
        </mxCell>
        <mxCell id="KJ-qH1atPCSQWbOXbqT6-214" value="" style="shape=table;startSize=0;container=1;collapsible=0;childLayout=tableLayout;" parent="1" vertex="1">
          <mxGeometry x="781" y="537" width="60" height="40" as="geometry" />
        </mxCell>
        <mxCell id="KJ-qH1atPCSQWbOXbqT6-215" value="" style="shape=partialRectangle;collapsible=0;dropTarget=0;pointerEvents=0;fillColor=none;top=0;left=0;bottom=0;right=0;points=[[0,0.5],[1,0.5]];portConstraint=eastwest;" parent="KJ-qH1atPCSQWbOXbqT6-214" vertex="1">
          <mxGeometry width="60" height="40" as="geometry" />
        </mxCell>
        <mxCell id="KJ-qH1atPCSQWbOXbqT6-216" value="ID" style="shape=partialRectangle;html=1;whiteSpace=wrap;connectable=0;overflow=hidden;fillColor=none;top=0;left=0;bottom=0;right=0;pointerEvents=1;" parent="KJ-qH1atPCSQWbOXbqT6-215" vertex="1">
          <mxGeometry width="60" height="40" as="geometry">
            <mxRectangle width="60" height="40" as="alternateBounds" />
          </mxGeometry>
        </mxCell>
        <mxCell id="KJ-qH1atPCSQWbOXbqT6-217" value="" style="shape=partialRectangle;collapsible=0;dropTarget=0;pointerEvents=0;fillColor=none;top=0;left=0;bottom=0;right=0;points=[[0,0.5],[1,0.5]];portConstraint=eastwest;" parent="1" vertex="1">
          <mxGeometry x="841" y="537" width="60" height="40" as="geometry" />
        </mxCell>
        <mxCell id="KJ-qH1atPCSQWbOXbqT6-218" value="" style="shape=partialRectangle;html=1;whiteSpace=wrap;connectable=0;overflow=hidden;fillColor=none;top=0;left=0;bottom=0;right=0;pointerEvents=1;" parent="KJ-qH1atPCSQWbOXbqT6-217" vertex="1">
          <mxGeometry width="60" height="40" as="geometry">
            <mxRectangle width="60" height="40" as="alternateBounds" />
          </mxGeometry>
        </mxCell>
        <mxCell id="KJ-qH1atPCSQWbOXbqT6-219" value="" style="shape=table;startSize=0;container=1;collapsible=0;childLayout=tableLayout;" parent="1" vertex="1">
          <mxGeometry x="841" y="537" width="60" height="40" as="geometry" />
        </mxCell>
        <mxCell id="KJ-qH1atPCSQWbOXbqT6-220" value="" style="shape=partialRectangle;collapsible=0;dropTarget=0;pointerEvents=0;fillColor=none;top=0;left=0;bottom=0;right=0;points=[[0,0.5],[1,0.5]];portConstraint=eastwest;" parent="KJ-qH1atPCSQWbOXbqT6-219" vertex="1">
          <mxGeometry width="60" height="40" as="geometry" />
        </mxCell>
        <mxCell id="KJ-qH1atPCSQWbOXbqT6-221" value="EXE" style="shape=partialRectangle;html=1;whiteSpace=wrap;connectable=0;overflow=hidden;fillColor=none;top=0;left=0;bottom=0;right=0;pointerEvents=1;" parent="KJ-qH1atPCSQWbOXbqT6-220" vertex="1">
          <mxGeometry width="60" height="40" as="geometry">
            <mxRectangle width="60" height="40" as="alternateBounds" />
          </mxGeometry>
        </mxCell>
        <mxCell id="KJ-qH1atPCSQWbOXbqT6-222" value="" style="shape=table;startSize=0;container=1;collapsible=0;childLayout=tableLayout;" parent="1" vertex="1">
          <mxGeometry x="901" y="537" width="60" height="40" as="geometry" />
        </mxCell>
        <mxCell id="KJ-qH1atPCSQWbOXbqT6-223" value="" style="shape=partialRectangle;collapsible=0;dropTarget=0;pointerEvents=0;fillColor=none;top=0;left=0;bottom=0;right=0;points=[[0,0.5],[1,0.5]];portConstraint=eastwest;" parent="KJ-qH1atPCSQWbOXbqT6-222" vertex="1">
          <mxGeometry width="60" height="40" as="geometry" />
        </mxCell>
        <mxCell id="KJ-qH1atPCSQWbOXbqT6-224" value="MEM1" style="shape=partialRectangle;html=1;whiteSpace=wrap;connectable=0;overflow=hidden;fillColor=none;top=0;left=0;bottom=0;right=0;pointerEvents=1;" parent="KJ-qH1atPCSQWbOXbqT6-223" vertex="1">
          <mxGeometry width="60" height="40" as="geometry">
            <mxRectangle width="60" height="40" as="alternateBounds" />
          </mxGeometry>
        </mxCell>
        <mxCell id="KJ-qH1atPCSQWbOXbqT6-225" value="" style="shape=partialRectangle;collapsible=0;dropTarget=0;pointerEvents=0;fillColor=none;top=0;left=0;bottom=0;right=0;points=[[0,0.5],[1,0.5]];portConstraint=eastwest;" parent="1" vertex="1">
          <mxGeometry x="961" y="537" width="60" height="40" as="geometry" />
        </mxCell>
        <mxCell id="KJ-qH1atPCSQWbOXbqT6-226" value="" style="shape=partialRectangle;html=1;whiteSpace=wrap;connectable=0;overflow=hidden;fillColor=none;top=0;left=0;bottom=0;right=0;pointerEvents=1;" parent="KJ-qH1atPCSQWbOXbqT6-225" vertex="1">
          <mxGeometry width="60" height="40" as="geometry">
            <mxRectangle width="60" height="40" as="alternateBounds" />
          </mxGeometry>
        </mxCell>
        <mxCell id="KJ-qH1atPCSQWbOXbqT6-227" value="" style="shape=table;startSize=0;container=1;collapsible=0;childLayout=tableLayout;" parent="1" vertex="1">
          <mxGeometry x="961" y="537" width="60" height="40" as="geometry" />
        </mxCell>
        <mxCell id="KJ-qH1atPCSQWbOXbqT6-228" value="" style="shape=partialRectangle;collapsible=0;dropTarget=0;pointerEvents=0;fillColor=none;top=0;left=0;bottom=0;right=0;points=[[0,0.5],[1,0.5]];portConstraint=eastwest;" parent="KJ-qH1atPCSQWbOXbqT6-227" vertex="1">
          <mxGeometry width="60" height="40" as="geometry" />
        </mxCell>
        <mxCell id="KJ-qH1atPCSQWbOXbqT6-229" value="MEM2" style="shape=partialRectangle;html=1;whiteSpace=wrap;connectable=0;overflow=hidden;fillColor=none;top=0;left=0;bottom=0;right=0;pointerEvents=1;" parent="KJ-qH1atPCSQWbOXbqT6-228" vertex="1">
          <mxGeometry width="60" height="40" as="geometry">
            <mxRectangle width="60" height="40" as="alternateBounds" />
          </mxGeometry>
        </mxCell>
        <mxCell id="KJ-qH1atPCSQWbOXbqT6-230" value="" style="shape=table;startSize=0;container=1;collapsible=0;childLayout=tableLayout;" parent="1" vertex="1">
          <mxGeometry x="1021" y="537" width="60" height="40" as="geometry" />
        </mxCell>
        <mxCell id="KJ-qH1atPCSQWbOXbqT6-231" value="" style="shape=partialRectangle;collapsible=0;dropTarget=0;pointerEvents=0;fillColor=none;top=0;left=0;bottom=0;right=0;points=[[0,0.5],[1,0.5]];portConstraint=eastwest;" parent="KJ-qH1atPCSQWbOXbqT6-230" vertex="1">
          <mxGeometry width="60" height="40" as="geometry" />
        </mxCell>
        <mxCell id="KJ-qH1atPCSQWbOXbqT6-232" value="WB" style="shape=partialRectangle;html=1;whiteSpace=wrap;connectable=0;overflow=hidden;fillColor=none;top=0;left=0;bottom=0;right=0;pointerEvents=1;" parent="KJ-qH1atPCSQWbOXbqT6-231" vertex="1">
          <mxGeometry width="60" height="40" as="geometry">
            <mxRectangle width="60" height="40" as="alternateBounds" />
          </mxGeometry>
        </mxCell>
        <mxCell id="KJ-qH1atPCSQWbOXbqT6-233" value="L6(Killed)" style="text;html=1;strokeColor=none;fillColor=none;align=center;verticalAlign=middle;whiteSpace=wrap;rounded=0;" parent="1" vertex="1">
          <mxGeometry x="96" y="610" width="60" height="30" as="geometry" />
        </mxCell>
        <mxCell id="KJ-qH1atPCSQWbOXbqT6-234" value="L7(Killed)" style="text;html=1;strokeColor=none;fillColor=none;align=center;verticalAlign=middle;whiteSpace=wrap;rounded=0;" parent="1" vertex="1">
          <mxGeometry x="96" y="682" width="60" height="30" as="geometry" />
        </mxCell>
        <mxCell id="KJ-qH1atPCSQWbOXbqT6-235" value="" style="shape=table;startSize=0;container=1;collapsible=0;childLayout=tableLayout;" parent="1" vertex="1">
          <mxGeometry x="721" y="607" width="60" height="40" as="geometry" />
        </mxCell>
        <mxCell id="KJ-qH1atPCSQWbOXbqT6-236" value="" style="shape=partialRectangle;collapsible=0;dropTarget=0;pointerEvents=0;fillColor=none;top=0;left=0;bottom=0;right=0;points=[[0,0.5],[1,0.5]];portConstraint=eastwest;" parent="KJ-qH1atPCSQWbOXbqT6-235" vertex="1">
          <mxGeometry width="60" height="40" as="geometry" />
        </mxCell>
        <mxCell id="KJ-qH1atPCSQWbOXbqT6-237" value="IF1" style="shape=partialRectangle;html=1;whiteSpace=wrap;connectable=0;overflow=hidden;fillColor=none;top=0;left=0;bottom=0;right=0;pointerEvents=1;" parent="KJ-qH1atPCSQWbOXbqT6-236" vertex="1">
          <mxGeometry width="60" height="40" as="geometry">
            <mxRectangle width="60" height="40" as="alternateBounds" />
          </mxGeometry>
        </mxCell>
        <mxCell id="KJ-qH1atPCSQWbOXbqT6-238" value="" style="shape=partialRectangle;collapsible=0;dropTarget=0;pointerEvents=0;fillColor=none;top=0;left=0;bottom=0;right=0;points=[[0,0.5],[1,0.5]];portConstraint=eastwest;" parent="1" vertex="1">
          <mxGeometry x="781" y="607" width="60" height="40" as="geometry" />
        </mxCell>
        <mxCell id="KJ-qH1atPCSQWbOXbqT6-239" value="" style="shape=partialRectangle;html=1;whiteSpace=wrap;connectable=0;overflow=hidden;fillColor=none;top=0;left=0;bottom=0;right=0;pointerEvents=1;" parent="KJ-qH1atPCSQWbOXbqT6-238" vertex="1">
          <mxGeometry width="60" height="40" as="geometry">
            <mxRectangle width="60" height="40" as="alternateBounds" />
          </mxGeometry>
        </mxCell>
        <mxCell id="KJ-qH1atPCSQWbOXbqT6-240" value="" style="shape=table;startSize=0;container=1;collapsible=0;childLayout=tableLayout;" parent="1" vertex="1">
          <mxGeometry x="781" y="607" width="60" height="40" as="geometry" />
        </mxCell>
        <mxCell id="KJ-qH1atPCSQWbOXbqT6-241" value="" style="shape=partialRectangle;collapsible=0;dropTarget=0;pointerEvents=0;fillColor=none;top=0;left=0;bottom=0;right=0;points=[[0,0.5],[1,0.5]];portConstraint=eastwest;" parent="KJ-qH1atPCSQWbOXbqT6-240" vertex="1">
          <mxGeometry width="60" height="40" as="geometry" />
        </mxCell>
        <mxCell id="KJ-qH1atPCSQWbOXbqT6-242" value="IF2" style="shape=partialRectangle;html=1;whiteSpace=wrap;connectable=0;overflow=hidden;fillColor=none;top=0;left=0;bottom=0;right=0;pointerEvents=1;" parent="KJ-qH1atPCSQWbOXbqT6-241" vertex="1">
          <mxGeometry width="60" height="40" as="geometry">
            <mxRectangle width="60" height="40" as="alternateBounds" />
          </mxGeometry>
        </mxCell>
        <mxCell id="KJ-qH1atPCSQWbOXbqT6-246" value="" style="shape=partialRectangle;collapsible=0;dropTarget=0;pointerEvents=0;fillColor=none;top=0;left=0;bottom=0;right=0;points=[[0,0.5],[1,0.5]];portConstraint=eastwest;" parent="1" vertex="1">
          <mxGeometry x="901" y="607" width="60" height="40" as="geometry" />
        </mxCell>
        <mxCell id="KJ-qH1atPCSQWbOXbqT6-247" value="" style="shape=partialRectangle;html=1;whiteSpace=wrap;connectable=0;overflow=hidden;fillColor=none;top=0;left=0;bottom=0;right=0;pointerEvents=1;" parent="KJ-qH1atPCSQWbOXbqT6-246" vertex="1">
          <mxGeometry width="60" height="40" as="geometry">
            <mxRectangle width="60" height="40" as="alternateBounds" />
          </mxGeometry>
        </mxCell>
        <mxCell id="KJ-qH1atPCSQWbOXbqT6-254" value="" style="shape=partialRectangle;collapsible=0;dropTarget=0;pointerEvents=0;fillColor=none;top=0;left=0;bottom=0;right=0;points=[[0,0.5],[1,0.5]];portConstraint=eastwest;" parent="1" vertex="1">
          <mxGeometry x="1021" y="607" width="60" height="40" as="geometry" />
        </mxCell>
        <mxCell id="KJ-qH1atPCSQWbOXbqT6-255" value="" style="shape=partialRectangle;html=1;whiteSpace=wrap;connectable=0;overflow=hidden;fillColor=none;top=0;left=0;bottom=0;right=0;pointerEvents=1;" parent="KJ-qH1atPCSQWbOXbqT6-254" vertex="1">
          <mxGeometry width="60" height="40" as="geometry">
            <mxRectangle width="60" height="40" as="alternateBounds" />
          </mxGeometry>
        </mxCell>
        <mxCell id="KJ-qH1atPCSQWbOXbqT6-262" value="" style="shape=table;startSize=0;container=1;collapsible=0;childLayout=tableLayout;" parent="1" vertex="1">
          <mxGeometry x="785" y="670" width="60" height="40" as="geometry" />
        </mxCell>
        <mxCell id="KJ-qH1atPCSQWbOXbqT6-263" value="" style="shape=partialRectangle;collapsible=0;dropTarget=0;pointerEvents=0;fillColor=none;top=0;left=0;bottom=0;right=0;points=[[0,0.5],[1,0.5]];portConstraint=eastwest;" parent="KJ-qH1atPCSQWbOXbqT6-262" vertex="1">
          <mxGeometry width="60" height="40" as="geometry" />
        </mxCell>
        <mxCell id="KJ-qH1atPCSQWbOXbqT6-264" value="IF1" style="shape=partialRectangle;html=1;whiteSpace=wrap;connectable=0;overflow=hidden;fillColor=none;top=0;left=0;bottom=0;right=0;pointerEvents=1;" parent="KJ-qH1atPCSQWbOXbqT6-263" vertex="1">
          <mxGeometry width="60" height="40" as="geometry">
            <mxRectangle width="60" height="40" as="alternateBounds" />
          </mxGeometry>
        </mxCell>
        <mxCell id="KJ-qH1atPCSQWbOXbqT6-265" value="" style="shape=partialRectangle;collapsible=0;dropTarget=0;pointerEvents=0;fillColor=none;top=0;left=0;bottom=0;right=0;points=[[0,0.5],[1,0.5]];portConstraint=eastwest;" parent="1" vertex="1">
          <mxGeometry x="845" y="670" width="60" height="40" as="geometry" />
        </mxCell>
        <mxCell id="KJ-qH1atPCSQWbOXbqT6-266" value="" style="shape=partialRectangle;html=1;whiteSpace=wrap;connectable=0;overflow=hidden;fillColor=none;top=0;left=0;bottom=0;right=0;pointerEvents=1;" parent="KJ-qH1atPCSQWbOXbqT6-265" vertex="1">
          <mxGeometry width="60" height="40" as="geometry">
            <mxRectangle width="60" height="40" as="alternateBounds" />
          </mxGeometry>
        </mxCell>
        <mxCell id="KJ-qH1atPCSQWbOXbqT6-273" value="" style="shape=partialRectangle;collapsible=0;dropTarget=0;pointerEvents=0;fillColor=none;top=0;left=0;bottom=0;right=0;points=[[0,0.5],[1,0.5]];portConstraint=eastwest;" parent="1" vertex="1">
          <mxGeometry x="965" y="670" width="60" height="40" as="geometry" />
        </mxCell>
        <mxCell id="KJ-qH1atPCSQWbOXbqT6-274" value="" style="shape=partialRectangle;html=1;whiteSpace=wrap;connectable=0;overflow=hidden;fillColor=none;top=0;left=0;bottom=0;right=0;pointerEvents=1;" parent="KJ-qH1atPCSQWbOXbqT6-273" vertex="1">
          <mxGeometry width="60" height="40" as="geometry">
            <mxRectangle width="60" height="40" as="alternateBounds" />
          </mxGeometry>
        </mxCell>
        <mxCell id="KJ-qH1atPCSQWbOXbqT6-281" value="" style="shape=partialRectangle;collapsible=0;dropTarget=0;pointerEvents=0;fillColor=none;top=0;left=0;bottom=0;right=0;points=[[0,0.5],[1,0.5]];portConstraint=eastwest;" parent="1" vertex="1">
          <mxGeometry x="1085" y="670" width="60" height="40" as="geometry" />
        </mxCell>
        <mxCell id="KJ-qH1atPCSQWbOXbqT6-282" value="" style="shape=partialRectangle;html=1;whiteSpace=wrap;connectable=0;overflow=hidden;fillColor=none;top=0;left=0;bottom=0;right=0;pointerEvents=1;" parent="KJ-qH1atPCSQWbOXbqT6-281" vertex="1">
          <mxGeometry width="60" height="40" as="geometry">
            <mxRectangle width="60" height="40" as="alternateBounds" />
          </mxGeometry>
        </mxCell>
        <mxCell id="KJ-qH1atPCSQWbOXbqT6-289" value="" style="shape=table;startSize=0;container=1;collapsible=0;childLayout=tableLayout;" parent="1" vertex="1">
          <mxGeometry x="848" y="740" width="60" height="40" as="geometry" />
        </mxCell>
        <mxCell id="KJ-qH1atPCSQWbOXbqT6-290" value="" style="shape=partialRectangle;collapsible=0;dropTarget=0;pointerEvents=0;fillColor=none;top=0;left=0;bottom=0;right=0;points=[[0,0.5],[1,0.5]];portConstraint=eastwest;" parent="KJ-qH1atPCSQWbOXbqT6-289" vertex="1">
          <mxGeometry width="60" height="40" as="geometry" />
        </mxCell>
        <mxCell id="KJ-qH1atPCSQWbOXbqT6-291" value="IF1" style="shape=partialRectangle;html=1;whiteSpace=wrap;connectable=0;overflow=hidden;fillColor=none;top=0;left=0;bottom=0;right=0;pointerEvents=1;" parent="KJ-qH1atPCSQWbOXbqT6-290" vertex="1">
          <mxGeometry width="60" height="40" as="geometry">
            <mxRectangle width="60" height="40" as="alternateBounds" />
          </mxGeometry>
        </mxCell>
        <mxCell id="KJ-qH1atPCSQWbOXbqT6-292" value="" style="shape=partialRectangle;collapsible=0;dropTarget=0;pointerEvents=0;fillColor=none;top=0;left=0;bottom=0;right=0;points=[[0,0.5],[1,0.5]];portConstraint=eastwest;" parent="1" vertex="1">
          <mxGeometry x="908" y="740" width="60" height="40" as="geometry" />
        </mxCell>
        <mxCell id="KJ-qH1atPCSQWbOXbqT6-293" value="" style="shape=partialRectangle;html=1;whiteSpace=wrap;connectable=0;overflow=hidden;fillColor=none;top=0;left=0;bottom=0;right=0;pointerEvents=1;" parent="KJ-qH1atPCSQWbOXbqT6-292" vertex="1">
          <mxGeometry width="60" height="40" as="geometry">
            <mxRectangle width="60" height="40" as="alternateBounds" />
          </mxGeometry>
        </mxCell>
        <mxCell id="KJ-qH1atPCSQWbOXbqT6-294" value="" style="shape=table;startSize=0;container=1;collapsible=0;childLayout=tableLayout;" parent="1" vertex="1">
          <mxGeometry x="908" y="740" width="60" height="40" as="geometry" />
        </mxCell>
        <mxCell id="KJ-qH1atPCSQWbOXbqT6-295" value="" style="shape=partialRectangle;collapsible=0;dropTarget=0;pointerEvents=0;fillColor=none;top=0;left=0;bottom=0;right=0;points=[[0,0.5],[1,0.5]];portConstraint=eastwest;" parent="KJ-qH1atPCSQWbOXbqT6-294" vertex="1">
          <mxGeometry width="60" height="40" as="geometry" />
        </mxCell>
        <mxCell id="KJ-qH1atPCSQWbOXbqT6-296" value="IF2" style="shape=partialRectangle;html=1;whiteSpace=wrap;connectable=0;overflow=hidden;fillColor=none;top=0;left=0;bottom=0;right=0;pointerEvents=1;" parent="KJ-qH1atPCSQWbOXbqT6-295" vertex="1">
          <mxGeometry width="60" height="40" as="geometry">
            <mxRectangle width="60" height="40" as="alternateBounds" />
          </mxGeometry>
        </mxCell>
        <mxCell id="KJ-qH1atPCSQWbOXbqT6-297" value="" style="shape=table;startSize=0;container=1;collapsible=0;childLayout=tableLayout;" parent="1" vertex="1">
          <mxGeometry x="968" y="740" width="60" height="40" as="geometry" />
        </mxCell>
        <mxCell id="KJ-qH1atPCSQWbOXbqT6-298" value="" style="shape=partialRectangle;collapsible=0;dropTarget=0;pointerEvents=0;fillColor=none;top=0;left=0;bottom=0;right=0;points=[[0,0.5],[1,0.5]];portConstraint=eastwest;" parent="KJ-qH1atPCSQWbOXbqT6-297" vertex="1">
          <mxGeometry width="60" height="40" as="geometry" />
        </mxCell>
        <mxCell id="KJ-qH1atPCSQWbOXbqT6-299" value="ID" style="shape=partialRectangle;html=1;whiteSpace=wrap;connectable=0;overflow=hidden;fillColor=none;top=0;left=0;bottom=0;right=0;pointerEvents=1;" parent="KJ-qH1atPCSQWbOXbqT6-298" vertex="1">
          <mxGeometry width="60" height="40" as="geometry">
            <mxRectangle width="60" height="40" as="alternateBounds" />
          </mxGeometry>
        </mxCell>
        <mxCell id="KJ-qH1atPCSQWbOXbqT6-300" value="" style="shape=partialRectangle;collapsible=0;dropTarget=0;pointerEvents=0;fillColor=none;top=0;left=0;bottom=0;right=0;points=[[0,0.5],[1,0.5]];portConstraint=eastwest;" parent="1" vertex="1">
          <mxGeometry x="1028" y="740" width="60" height="40" as="geometry" />
        </mxCell>
        <mxCell id="KJ-qH1atPCSQWbOXbqT6-301" value="" style="shape=partialRectangle;html=1;whiteSpace=wrap;connectable=0;overflow=hidden;fillColor=none;top=0;left=0;bottom=0;right=0;pointerEvents=1;" parent="KJ-qH1atPCSQWbOXbqT6-300" vertex="1">
          <mxGeometry width="60" height="40" as="geometry">
            <mxRectangle width="60" height="40" as="alternateBounds" />
          </mxGeometry>
        </mxCell>
        <mxCell id="KJ-qH1atPCSQWbOXbqT6-302" value="" style="shape=table;startSize=0;container=1;collapsible=0;childLayout=tableLayout;" parent="1" vertex="1">
          <mxGeometry x="1028" y="740" width="60" height="40" as="geometry" />
        </mxCell>
        <mxCell id="KJ-qH1atPCSQWbOXbqT6-303" value="" style="shape=partialRectangle;collapsible=0;dropTarget=0;pointerEvents=0;fillColor=none;top=0;left=0;bottom=0;right=0;points=[[0,0.5],[1,0.5]];portConstraint=eastwest;" parent="KJ-qH1atPCSQWbOXbqT6-302" vertex="1">
          <mxGeometry width="60" height="40" as="geometry" />
        </mxCell>
        <mxCell id="KJ-qH1atPCSQWbOXbqT6-304" value="EXE" style="shape=partialRectangle;html=1;whiteSpace=wrap;connectable=0;overflow=hidden;fillColor=none;top=0;left=0;bottom=0;right=0;pointerEvents=1;" parent="KJ-qH1atPCSQWbOXbqT6-303" vertex="1">
          <mxGeometry width="60" height="40" as="geometry">
            <mxRectangle width="60" height="40" as="alternateBounds" />
          </mxGeometry>
        </mxCell>
        <mxCell id="KJ-qH1atPCSQWbOXbqT6-305" value="" style="shape=table;startSize=0;container=1;collapsible=0;childLayout=tableLayout;" parent="1" vertex="1">
          <mxGeometry x="1088" y="740" width="60" height="40" as="geometry" />
        </mxCell>
        <mxCell id="KJ-qH1atPCSQWbOXbqT6-306" value="" style="shape=partialRectangle;collapsible=0;dropTarget=0;pointerEvents=0;fillColor=none;top=0;left=0;bottom=0;right=0;points=[[0,0.5],[1,0.5]];portConstraint=eastwest;" parent="KJ-qH1atPCSQWbOXbqT6-305" vertex="1">
          <mxGeometry width="60" height="40" as="geometry" />
        </mxCell>
        <mxCell id="KJ-qH1atPCSQWbOXbqT6-307" value="MEM1" style="shape=partialRectangle;html=1;whiteSpace=wrap;connectable=0;overflow=hidden;fillColor=none;top=0;left=0;bottom=0;right=0;pointerEvents=1;" parent="KJ-qH1atPCSQWbOXbqT6-306" vertex="1">
          <mxGeometry width="60" height="40" as="geometry">
            <mxRectangle width="60" height="40" as="alternateBounds" />
          </mxGeometry>
        </mxCell>
        <mxCell id="KJ-qH1atPCSQWbOXbqT6-308" value="" style="shape=partialRectangle;collapsible=0;dropTarget=0;pointerEvents=0;fillColor=none;top=0;left=0;bottom=0;right=0;points=[[0,0.5],[1,0.5]];portConstraint=eastwest;" parent="1" vertex="1">
          <mxGeometry x="1148" y="740" width="60" height="40" as="geometry" />
        </mxCell>
        <mxCell id="KJ-qH1atPCSQWbOXbqT6-309" value="" style="shape=partialRectangle;html=1;whiteSpace=wrap;connectable=0;overflow=hidden;fillColor=none;top=0;left=0;bottom=0;right=0;pointerEvents=1;" parent="KJ-qH1atPCSQWbOXbqT6-308" vertex="1">
          <mxGeometry width="60" height="40" as="geometry">
            <mxRectangle width="60" height="40" as="alternateBounds" />
          </mxGeometry>
        </mxCell>
        <mxCell id="KJ-qH1atPCSQWbOXbqT6-310" value="" style="shape=table;startSize=0;container=1;collapsible=0;childLayout=tableLayout;" parent="1" vertex="1">
          <mxGeometry x="1148" y="740" width="60" height="40" as="geometry" />
        </mxCell>
        <mxCell id="KJ-qH1atPCSQWbOXbqT6-311" value="" style="shape=partialRectangle;collapsible=0;dropTarget=0;pointerEvents=0;fillColor=none;top=0;left=0;bottom=0;right=0;points=[[0,0.5],[1,0.5]];portConstraint=eastwest;" parent="KJ-qH1atPCSQWbOXbqT6-310" vertex="1">
          <mxGeometry width="60" height="40" as="geometry" />
        </mxCell>
        <mxCell id="KJ-qH1atPCSQWbOXbqT6-312" value="MEM2" style="shape=partialRectangle;html=1;whiteSpace=wrap;connectable=0;overflow=hidden;fillColor=none;top=0;left=0;bottom=0;right=0;pointerEvents=1;" parent="KJ-qH1atPCSQWbOXbqT6-311" vertex="1">
          <mxGeometry width="60" height="40" as="geometry">
            <mxRectangle width="60" height="40" as="alternateBounds" />
          </mxGeometry>
        </mxCell>
        <mxCell id="KJ-qH1atPCSQWbOXbqT6-313" value="" style="shape=table;startSize=0;container=1;collapsible=0;childLayout=tableLayout;" parent="1" vertex="1">
          <mxGeometry x="1208" y="740" width="60" height="40" as="geometry" />
        </mxCell>
        <mxCell id="KJ-qH1atPCSQWbOXbqT6-314" value="" style="shape=partialRectangle;collapsible=0;dropTarget=0;pointerEvents=0;fillColor=none;top=0;left=0;bottom=0;right=0;points=[[0,0.5],[1,0.5]];portConstraint=eastwest;" parent="KJ-qH1atPCSQWbOXbqT6-313" vertex="1">
          <mxGeometry width="60" height="40" as="geometry" />
        </mxCell>
        <mxCell id="KJ-qH1atPCSQWbOXbqT6-315" value="WB" style="shape=partialRectangle;html=1;whiteSpace=wrap;connectable=0;overflow=hidden;fillColor=none;top=0;left=0;bottom=0;right=0;pointerEvents=1;" parent="KJ-qH1atPCSQWbOXbqT6-314" vertex="1">
          <mxGeometry width="60" height="40" as="geometry">
            <mxRectangle width="60" height="40" as="alternateBounds" />
          </mxGeometry>
        </mxCell>
        <mxCell id="KJ-qH1atPCSQWbOXbqT6-316" value="L1" style="text;html=1;strokeColor=none;fillColor=none;align=center;verticalAlign=middle;whiteSpace=wrap;rounded=0;" parent="1" vertex="1">
          <mxGeometry x="85" y="745" width="60" height="30" as="geometry" />
        </mxCell>
        <mxCell id="KJ-qH1atPCSQWbOXbqT6-317" value="" style="verticalLabelPosition=bottom;verticalAlign=top;html=1;shape=mxgraph.basic.x;fillColor=#FF3333;strokeColor=#b85450;" parent="1" vertex="1">
          <mxGeometry x="867" y="612" width="31" height="28" as="geometry" />
        </mxCell>
        <mxCell id="KJ-qH1atPCSQWbOXbqT6-318" value="" style="verticalLabelPosition=bottom;verticalAlign=top;html=1;shape=mxgraph.basic.x;fillColor=#FF3333;strokeColor=#b85450;" parent="1" vertex="1">
          <mxGeometry x="870" y="676" width="31" height="28" as="geometry" />
        </mxCell>
        <mxCell id="KJ-qH1atPCSQWbOXbqT6-319" value="Killed by Branch Misprediction" style="text;html=1;strokeColor=none;fillColor=none;align=center;verticalAlign=middle;whiteSpace=wrap;rounded=0;" parent="1" vertex="1">
          <mxGeometry x="750" y="315" width="276" height="32" as="geometry" />
        </mxCell>
        <mxCell id="KJ-qH1atPCSQWbOXbqT6-320" value="Killed by Branch Misprediction" style="text;html=1;strokeColor=none;fillColor=none;align=center;verticalAlign=middle;whiteSpace=wrap;rounded=0;" parent="1" vertex="1">
          <mxGeometry x="747.5" y="387" width="276" height="32" as="geometry" />
        </mxCell>
        <mxCell id="KJ-qH1atPCSQWbOXbqT6-321" value="Killed by Branch Misprediction" style="text;html=1;strokeColor=none;fillColor=none;align=center;verticalAlign=middle;whiteSpace=wrap;rounded=0;" parent="1" vertex="1">
          <mxGeometry x="890" y="607" width="276" height="32" as="geometry" />
        </mxCell>
        <mxCell id="KJ-qH1atPCSQWbOXbqT6-322" value="Killed by Branch Misprediction" style="text;html=1;strokeColor=none;fillColor=none;align=center;verticalAlign=middle;whiteSpace=wrap;rounded=0;" parent="1" vertex="1">
          <mxGeometry x="888" y="674" width="276" height="32" as="geometry" />
        </mxCell>
        <mxCell id="KJ-qH1atPCSQWbOXbqT6-323" value="3 nops between L1 and L2" style="text;html=1;strokeColor=none;fillColor=none;align=center;verticalAlign=middle;whiteSpace=wrap;rounded=0;" parent="1" vertex="1">
          <mxGeometry x="973" y="209" width="276" height="32" as="geometry" />
        </mxCell>
        <mxCell id="KJ-qH1atPCSQWbOXbqT6-326" value="" style="shape=flexArrow;endArrow=classic;startArrow=classic;html=1;rounded=0;" parent="1" edge="1">
          <mxGeometry width="100" height="100" relative="1" as="geometry">
            <mxPoint x="851" y="265" as="sourcePoint" />
            <mxPoint x="680" y="185" as="targetPoint" />
            <Array as="points">
              <mxPoint x="981" y="265" />
              <mxPoint x="1017" y="225" />
              <mxPoint x="971" y="185" />
            </Array>
          </mxGeometry>
        </mxCell>
        <mxCell id="KJ-qH1atPCSQWbOXbqT6-327" value="" style="shape=flexArrow;endArrow=classic;startArrow=classic;html=1;rounded=0;" parent="1" edge="1">
          <mxGeometry width="100" height="100" relative="1" as="geometry">
            <mxPoint x="1087" y="465" as="sourcePoint" />
            <mxPoint x="1034" y="267" as="targetPoint" />
            <Array as="points">
              <mxPoint x="1187" y="465" />
              <mxPoint x="1290" y="465" />
              <mxPoint x="1358" y="365" />
              <mxPoint x="1325" y="267" />
            </Array>
          </mxGeometry>
        </mxCell>
        <mxCell id="KJ-qH1atPCSQWbOXbqT6-328" value="5 nops between L2 and L4" style="text;html=1;strokeColor=none;fillColor=none;align=center;verticalAlign=middle;whiteSpace=wrap;rounded=0;" parent="1" vertex="1">
          <mxGeometry x="1301" y="351" width="276" height="32" as="geometry" />
        </mxCell>
        <mxCell id="KJ-qH1atPCSQWbOXbqT6-329" value="" style="shape=flexArrow;endArrow=classic;startArrow=classic;html=1;rounded=0;" parent="1" edge="1">
          <mxGeometry width="100" height="100" relative="1" as="geometry">
            <mxPoint x="1125" y="556" as="sourcePoint" />
            <mxPoint x="1088" y="492" as="targetPoint" />
            <Array as="points">
              <mxPoint x="1362" y="556" />
              <mxPoint x="1420" y="532" />
              <mxPoint x="1379" y="492" />
            </Array>
          </mxGeometry>
        </mxCell>
        <mxCell id="KJ-qH1atPCSQWbOXbqT6-330" value="no stall so no nop is needed between L4 and L5" style="text;html=1;strokeColor=none;fillColor=none;align=center;verticalAlign=middle;whiteSpace=wrap;rounded=0;" parent="1" vertex="1">
          <mxGeometry x="1129" y="511" width="276" height="32" as="geometry" />
        </mxCell>
        <mxCell id="qLmUxIZi0XMC_q7w6T2s-1" value="" style="endArrow=none;dashed=1;html=1;rounded=0;" edge="1" parent="1">
          <mxGeometry width="50" height="50" relative="1" as="geometry">
            <mxPoint x="212" y="882" as="sourcePoint" />
            <mxPoint x="212" y="233" as="targetPoint" />
          </mxGeometry>
        </mxCell>
        <mxCell id="qLmUxIZi0XMC_q7w6T2s-2" value="" style="endArrow=none;dashed=1;html=1;rounded=0;" edge="1" parent="1">
          <mxGeometry width="50" height="50" relative="1" as="geometry">
            <mxPoint x="874.5" y="896" as="sourcePoint" />
            <mxPoint x="874.1700000000001" y="778" as="targetPoint" />
          </mxGeometry>
        </mxCell>
        <mxCell id="qLmUxIZi0XMC_q7w6T2s-3" value="" style="shape=flexArrow;endArrow=classic;startArrow=classic;html=1;rounded=0;" edge="1" parent="1">
          <mxGeometry width="100" height="100" relative="1" as="geometry">
            <mxPoint x="240" y="852" as="sourcePoint" />
            <mxPoint x="855" y="852" as="targetPoint" />
          </mxGeometry>
        </mxCell>
        <mxCell id="qLmUxIZi0XMC_q7w6T2s-4" value="12 cycles per iteration" style="text;html=1;strokeColor=none;fillColor=none;align=center;verticalAlign=middle;whiteSpace=wrap;rounded=0;" vertex="1" parent="1">
          <mxGeometry x="432" y="875" width="197" height="37" as="geometry" />
        </mxCell>
      </root>
    </mxGraphModel>
  </diagram>
</mxfile>
